%TF.GenerationSoftware,KiCad,Pcbnew,9.0.0-1.fc40*%
%TF.CreationDate,2025-05-02T16:36:53+02:00*%
%TF.ProjectId,mm,6d6d2e6b-6963-4616-945f-706362585858,rev?*%
%TF.SameCoordinates,Original*%
%TF.FileFunction,Profile,NP*%
%FSLAX46Y46*%
G04 Gerber Fmt 4.6, Leading zero omitted, Abs format (unit mm)*
G04 Created by KiCad (PCBNEW 9.0.0-1.fc40) date 2025-05-02 16:36:53*
%MOMM*%
%LPD*%
G01*
G04 APERTURE LIST*
%TA.AperFunction,Profile*%
%ADD10C,0.050000*%
%TD*%
G04 APERTURE END LIST*
D10*
X96250000Y-121000000D02*
X97250000Y-121000000D01*
X102750000Y-133000001D02*
X103750000Y-133000001D01*
X102750000Y-121000001D02*
X102750000Y-133000001D01*
X97250000Y-105999999D02*
X97250000Y-116000000D01*
X103750000Y-116000001D02*
X103750000Y-121000001D01*
X103750000Y-121000001D02*
X102750000Y-121000001D01*
X103750000Y-138000001D02*
X102750000Y-138000001D01*
X97250000Y-121000000D02*
X97250000Y-133000000D01*
X96250000Y-116000000D02*
X96250000Y-121000000D01*
X97250000Y-138000000D02*
X100000000Y-138000000D01*
X96250000Y-133000000D02*
X96250000Y-138000000D01*
X97250000Y-133000000D02*
X96250000Y-133000000D01*
X97250000Y-116000000D02*
X96250000Y-116000000D01*
X102750000Y-116000001D02*
X103750000Y-116000001D01*
X103750000Y-133000001D02*
X103750000Y-138000001D01*
X102750000Y-138000001D02*
X100000000Y-138000001D01*
X96250000Y-138000000D02*
X97250000Y-138000000D01*
X102750000Y-106000000D02*
X102750000Y-116000001D01*
X97250000Y-106000000D02*
G75*
G02*
X102750000Y-106000000I2750000J6000000D01*
G01*
X102000000Y-100000000D02*
G75*
G02*
X98000000Y-100000000I-2000000J0D01*
G01*
X98000000Y-100000000D02*
G75*
G02*
X102000000Y-100000000I2000000J0D01*
G01*
M02*
