<?xml version="1.0" encoding="UTF-8" standalone="no"?>
<!-- Created with Inkscape (http://www.inkscape.org/) -->

<svg
   width="101.68325mm"
   height="11.772231mm"
   viewBox="0 0 101.68325 11.772231"
   version="1.1"
   id="svg1"
   xmlns="http://www.w3.org/2000/svg"
   xmlns:svg="http://www.w3.org/2000/svg">
  <defs
     id="defs1" />
  <g
     id="layer1"
     transform="translate(-27.730988,-95.273189)">
    <path
       d="m 27.902791,105.90997 q -0.144694,-0.38585 -0.130913,-0.93018 0.01378,-0.55121 0.151584,-1.32291 0.144694,-0.7717 0.434082,-1.65365 0.668348,-2.046376 1.819009,-3.61734 0.199815,-0.268717 0.413411,-0.268717 0.220486,0 0.427191,0.09646 0.213596,0.09646 0.37207,0.227376 0.399631,0.330729 0.261827,0.537435 -0.971516,1.557176 -1.591633,2.811196 1.564072,-0.11025 2.756075,-0.99219 1.302245,-0.957728 1.302245,-2.32888 0,-0.930175 -0.923285,-1.185112 -0.282498,-0.07579 -0.675238,-0.07579 -0.385851,0 -0.806152,0.08268 -0.413411,0.07579 -0.799262,0.213596 -0.76481,0.282498 -1.398707,0.74414 -0.179145,0.130914 -0.330729,0.130914 -0.151584,0 -0.330729,-0.07579 -0.179145,-0.08268 -0.316949,-0.199816 -0.537434,-0.454752 0.151584,-0.943955 0.999077,-0.702799 2.949,-0.909505 0.36518,-0.03445 0.971516,-0.03445 0.613227,0 1.247124,0.199815 0.640787,0.199815 1.026637,0.537434 0.709689,0.633897 0.709689,1.763888 0,1.019745 -0.806151,2.011931 -0.73725,0.91639 -1.901692,1.48828 0.558106,0.24805 0.833713,0.69591 0.282498,0.44097 0.268717,0.95773 -0.01378,0.50988 -0.206705,0.94396 -0.186035,0.42719 -0.509874,0.77859 -0.316949,0.34451 -0.74414,0.61323 -0.420302,0.26182 -0.888834,0.43408 -0.957736,0.35829 -1.943032,0.35829 -1.384928,0 -1.791449,-1.08865 z m 1.667425,-3.00412 q -0.523654,1.30224 -0.551215,2.26687 -0.01378,0.46853 0.227376,0.72347 0.248047,0.24805 0.675239,0.24805 0.427191,0 0.881943,-0.18604 0.454753,-0.18603 0.833713,-0.50298 0.868163,-0.73036 0.895724,-1.65365 0.02067,-0.8406 -0.75792,-1.14377 -0.234267,-0.0896 -0.502984,-0.11713 -0.323839,0.0138 -0.909504,0.16536 -0.578776,0.15159 -0.792372,0.19982 z m 6.008242,2.39778 q 0.06201,-0.44786 0.261827,-1.23334 0.206706,-0.79237 0.523654,-1.6881 0.72347,-2.05327 1.715656,-3.658681 0.137804,-0.220486 0.3514,-0.254937 0.303168,-0.04134 0.530544,-0.04134 0.234266,0 0.413411,0.05512 0.186035,0.04823 0.289388,0.130913 0.206706,0.172255 0.0689,0.36518 -1.247124,1.881015 -2.177299,4.588865 -0.351399,1.03352 -0.420301,1.44004 -0.0689,0.39964 -0.103353,0.55122 -0.02756,0.14469 -0.02756,0.25494 0,0.22737 0.289388,0.22737 0.289388,0 0.647678,-0.13091 0.358289,-0.1378 0.7717,-0.37896 0.413412,-0.24805 0.854383,-0.59945 0.447862,-0.3514 0.875054,-0.78548 0.427192,-0.44097 0.806152,-0.95084 0.37896,-0.50988 0.661458,-1.07487 0.627006,-1.24024 0.627006,-2.446017 0,-1.653644 -1.343586,-2.197968 -0.468532,-0.186036 -0.978406,-0.186036 -0.502984,0 -0.854383,0.0689 -0.3514,0.06201 -0.675238,0.179145 -0.654568,0.234266 -1.10243,0.627007 -0.117133,0.0689 -0.282498,0.0689 -0.165364,0 -0.358289,-0.09646 -0.186035,-0.09646 -0.337619,-0.241156 -0.34451,-0.337619 -0.275608,-0.647678 0.07579,-0.440972 1.322916,-0.76481 1.047308,-0.268717 2.108397,-0.268717 1.061088,0 1.908581,0.289387 0.854383,0.289388 1.384927,0.778591 0.992187,0.923285 0.992187,2.473574 0,2.053278 -1.419378,3.961858 -1.302245,1.77078 -3.100584,2.68717 -1.164441,0.59256 -2.142847,0.59256 -0.764811,0 -1.316026,-0.44786 -0.592556,-0.47543 -0.489202,-1.24713 z m 9.797844,1.51584 q -0.220486,0.17226 -0.413412,0.17226 -0.186035,0 -0.186035,-0.18604 0,-0.1378 0.08268,-0.33073 1.11621,-2.5976 1.48139,-3.54844 1.371147,-3.713808 1.591632,-4.809347 -0.551214,0.585666 -1.446939,0.75103 -0.220485,0.04134 -0.37207,0.04134 -0.151584,0 -0.261827,-0.04823 -0.103352,-0.04823 -0.172254,-0.124024 -0.130914,-0.144693 -0.130914,-0.316948 0,-0.172255 0.110243,-0.268717 0.110243,-0.103353 0.35829,-0.213596 0.254937,-0.110243 0.496093,-0.282498 0.248047,-0.172254 0.482313,-0.36518 l 0.468533,-0.39274 q 0.799261,-0.702799 1.040418,-0.702799 0.248047,0 0.434082,0.08268 0.186035,0.08268 0.323838,0.213596 0.310059,0.296278 0.296278,0.640787 -0.01378,0.337619 -0.130913,0.868164 -0.110243,0.530544 -0.310059,1.171331 -0.192925,0.633893 -0.454752,1.357361 -0.261827,0.71658 -0.578775,1.46761 -1.660535,4.0032 -2.707843,4.82313 z m 10.052781,-3.61045 q -0.392741,0 -0.392741,-0.30317 0,-0.27561 0.199816,-0.51677 0.358289,-0.43408 0.558105,-0.4203 h 3.183265 q 0.303169,0 0.303169,0.27561 0,0.28939 -0.199816,0.53054 -0.351399,0.43409 -0.606336,0.43409 z m 6.38031,0 q -0.392741,0 -0.392741,-0.30317 0,-0.27561 0.199816,-0.51677 0.358289,-0.43408 0.558105,-0.4203 h 3.183265 q 0.303169,0 0.303169,0.27561 0,0.28939 -0.199816,0.53054 -0.351399,0.43409 -0.606336,0.43409 z m 5.48459,0.82682 0.0069,-0.19982 q 0.07579,-2.06016 1.040418,-3.892946 0.888834,-1.674317 2.23931,-2.707845 1.336696,-1.019747 2.60449,-1.019747 0.964626,0 1.522731,0.668348 0.475423,0.578775 0.475423,1.419378 0,1.005967 -0.73725,1.984372 -0.427191,0.56499 -0.909504,0.81304 -0.227376,0.12402 -0.427192,0.12402 -0.192925,0 -0.358289,-0.0827 -0.165365,-0.0827 -0.289388,-0.20671 -0.254937,-0.26871 -0.254937,-0.48231 0,-0.21359 0.110243,-0.29628 1.12999,-0.813034 1.536511,-1.674307 0.158475,-0.330729 0.158475,-0.647678 0,-0.668348 -0.633897,-0.668348 -0.992187,0 -2.046386,1.081759 -0.985296,0.999077 -1.653644,2.508024 -0.695909,1.55029 -0.73725,2.84565 l -0.0069,0.26182 q 0,1.5503 0.654567,2.03261 0.234267,0.17225 0.558105,0.17225 0.330729,0 0.620117,-0.0827 0.289388,-0.0827 0.578776,-0.22738 0.468532,-0.24115 1.198892,-0.83371 0.220486,-0.17225 0.36518,0.0482 0.124023,0.17915 0.124023,0.41341 0,0.39275 -0.110243,0.53744 -0.103353,0.1378 -0.36518,0.33073 -0.254936,0.19292 -0.627006,0.35829 -0.868164,0.38585 -1.701876,0.38585 -0.833713,0 -1.343587,-0.19982 -0.509873,-0.2067 -0.861273,-0.58566 -0.730359,-0.79926 -0.730359,-2.1773 z m 12.32654,-2.93522 q -0.37896,0 -1.357366,1.15755 l -0.571886,0.7028 -1.102429,1.44005 q -0.399631,0.75792 -0.627007,1.2609 l -0.37207,0.79926 q -0.144694,0.29628 -0.254937,0.4203 -0.103353,0.11714 -0.289388,0.11714 -0.179145,0 -0.351399,-0.0689 -0.165365,-0.062 -0.289388,-0.16537 -0.261827,-0.22048 -0.261827,-0.48231 0,-0.10335 0.144694,-0.40652 l 0.275607,-0.55811 q 1.288465,-2.65272 2.335773,-6.724814 0.38585,-1.502061 0.558105,-2.700953 0.07579,-0.578776 0.564995,-0.578776 0.316949,0 0.523654,0.151584 0.399631,0.296278 0.385851,0.633897 -0.01378,0.337619 -0.09646,0.757921 -0.08268,0.420301 -0.213596,0.916394 -0.130913,0.489204 -0.296278,1.033528 -0.454752,1.384919 -0.675238,1.998149 -0.675238,1.85346 -0.833712,2.17041 0.103353,-0.12402 0.268717,-0.33762 1.254014,-1.64675 1.550292,-1.9637 0.296278,-0.32384 0.502983,-0.4961 0.434082,-0.378956 1.10243,-0.378956 0.544325,0 0.875054,0.365176 0.310058,0.3514 0.310058,0.7717 0,0.41342 -0.09646,0.75103 -0.08957,0.33073 -0.234266,0.67524 -0.144694,0.34451 -0.316948,0.70969 l -0.34451,0.72347 q -0.482313,1.09554 -0.482313,1.62609 0,0.37207 0.303168,0.37207 0.289388,0 0.523655,-0.12403 0.241156,-0.12402 0.310058,-0.12402 0.144694,0 0.144694,0.14469 0,0.61323 -0.620117,1.02664 -0.427191,0.2825 -0.778591,0.2825 -0.351399,0 -0.585666,-0.0689 -0.227376,-0.0758 -0.406521,-0.24116 -0.406521,-0.37207 -0.406521,-1.09554 0,-0.77859 0.509874,-1.95681 l 0.74414,-1.58475 q 0.213596,-0.44097 0.213596,-0.6959 0,-0.25494 -0.282498,-0.25494 z m 6.580127,-2.914545 q -0.151584,0.158474 -0.344509,0.261827 -0.192925,0.09646 -0.406521,0.124023 -0.213596,0.02067 -0.406521,-0.0689 -0.186035,-0.08957 -0.323839,-0.254937 -0.296278,-0.344509 -0.296278,-0.695908 0,-0.3514 0.110243,-0.523655 0.117134,-0.179144 0.289388,-0.289387 0.330729,-0.213596 0.620117,-0.213596 0.296278,0 0.454752,0.04134 0.165365,0.04134 0.303168,0.137804 0.337619,0.227376 0.337619,0.558105 0,0.323838 -0.09646,0.544324 -0.08957,0.213596 -0.241157,0.378961 z m -1.412488,7.455175 q 0.179145,0 0.179145,0.23427 0,0.31006 -0.282498,0.64079 -0.413411,0.48231 -1.109319,0.48231 -0.799262,0 -1.09554,-0.64768 -0.110243,-0.22738 -0.110243,-0.55121 0,-0.32384 0.110243,-0.71658 0.117133,-0.39963 0.282498,-0.83372 0.172254,-0.44097 0.37207,-0.88883 l 0.36518,-0.86816 q 0.39963,-0.97152 0.39963,-1.28158 0,-0.31006 -0.0689,-0.40652 -0.06201,-0.10335 -0.137803,-0.15847 l -0.137804,-0.0965 q -0.0689,-0.0482 -0.0689,-0.16536 0,-0.12402 0.08957,-0.23427 0.09646,-0.11024 0.248046,-0.192916 0.310059,-0.15848 0.72347,-0.15848 1.012857,0 1.012857,0.530546 0,0.62012 -0.323839,1.41938 -0.323838,0.79237 -0.551215,1.28157 l -0.413411,0.95085 q -0.454752,1.0473 -0.454752,1.50895 0,0.30317 0.303168,0.30317 0.296278,0 0.447862,-0.0758 0.151584,-0.0758 0.220486,-0.0758 z m 6.924636,-4.54063 q -0.39963,0 -1.46072,1.15755 -0.79237,0.90261 -1.15066,1.35737 l -0.62011,0.78548 q -0.39963,0.75792 -0.62701,1.2609 l -0.372071,0.79926 q -0.144694,0.29628 -0.254937,0.4203 -0.103353,0.11714 -0.289388,0.11714 -0.179144,0 -0.351399,-0.0689 -0.165364,-0.062 -0.289388,-0.16537 -0.261827,-0.22048 -0.261827,-0.48231 0,-0.10335 0.151584,-0.40652 l 0.261827,-0.55811 q 0.124024,-0.24804 0.289388,-0.63389 l 0.38585,-0.94396 q 0.813041,-2.0326 0.813041,-2.62516 0,-0.31695 -0.206704,-0.46853 l -0.137804,-0.0965 q -0.0689,-0.0482 -0.0689,-0.16536 0,-0.12402 0.08957,-0.23427 0.09646,-0.11024 0.248047,-0.192916 0.31006,-0.15848 0.62012,-0.15848 0.31694,0 0.49609,0.0689 0.17914,0.0689 0.31006,0.186026 0.26182,0.24116 0.26182,0.50298 0,0.26183 -0.0689,0.53055 -0.0689,0.26183 -0.17225,0.53743 -0.10335,0.26872 -0.22049,0.52366 -0.27561,0.59255 -0.34451,0.73036 -0.062,0.13091 -0.0345,0.0965 1.26091,-1.63297 1.51584,-1.92925 0.53055,-0.61323 0.82683,-0.8406 0.54432,-0.406526 1.02663,-0.406526 0.48921,0 0.77859,0.303166 0.28939,0.30317 0.28939,0.79926 0,0.43409 -0.22048,1.01975 -0.22049,0.58567 -0.29628,0.81993 l 1.01286,-1.33669 0.56499,-0.67524 q 0.50987,-0.57189 0.89572,-0.751026 0.38585,-0.17915 0.62701,-0.17915 0.24805,0 0.48231,0.0896 0.24116,0.0896 0.40653,0.254926 0.35139,0.33762 0.35139,0.89573 0,0.53743 -0.24804,1.10243 -0.24805,0.56499 -0.43408,0.93017 -0.18604,0.35829 -0.35829,0.72347 -0.50299,1.09554 -0.50299,1.62609 0,0.37207 0.30317,0.37207 0.28939,0 0.52366,-0.12403 0.24115,-0.12402 0.31005,-0.12402 0.1447,0 0.1447,0.14469 0,0.61323 -0.62701,1.02664 -0.4203,0.2825 -0.7717,0.2825 -0.34451,0 -0.55811,-0.0827 -0.21359,-0.0827 -0.38585,-0.26183 -0.38585,-0.39963 -0.38585,-0.99908 0,-0.59944 0.15159,-1.10243 0.15158,-0.50298 0.35829,-0.97151 0.2067,-0.47543 0.41341,-0.86817 0.21359,-0.39963 0.32384,-0.63389 0.22048,-0.48232 0.22048,-0.70969 0,-0.26872 -0.28249,-0.26872 -0.37207,0 -1.3367,1.23334 -0.73036,0.95774 -1.01286,1.37804 l -0.47542,0.68902 q -0.39963,0.75792 -0.61323,1.2609 l -0.3514,0.79926 q -0.13091,0.29628 -0.22737,0.4203 -0.0965,0.11714 -0.26872,0.11714 -0.17225,0 -0.33762,-0.0551 -0.15847,-0.0551 -0.27561,-0.1447 -0.26871,-0.19981 -0.26871,-0.4203 0,-0.22737 0.14469,-0.61323 0.15158,-0.39274 0.37207,-0.87505 l 0.96463,-2.03949 q 0.51676,-1.13688 0.51676,-1.44005 0,-0.31006 -0.2825,-0.31006 z m 0.68213,1.94303 q 0.007,0 0.007,-0.007 l 0.007,-0.0138 q -0.0138,0.0138 -0.0138,0.0207 z m 5.69129,1.4745 q 0.0276,-0.59944 0.19982,-1.14377 0.17225,-0.55121 0.46164,-1.06109 0.28939,-0.51676 0.67524,-0.97151 0.39274,-0.46165 0.847492,-0.80616 0.9853,-0.737246 1.99127,-0.737246 1.17822,0 1.57096,0.971516 0.1378,0.33073 0.13091,0.78548 -0.007,0.44786 -0.17225,0.83371 -0.16537,0.37896 -0.46165,0.69591 -0.28938,0.31006 -0.6959,0.55811 -0.39964,0.24804 -0.87506,0.4203 -0.9784,0.34451 -2.094612,0.35829 -0.0276,0.0965 -0.0345,0.28939 -0.007,0.19292 0.0413,0.43408 0.0482,0.23426 0.16536,0.4203 0.248052,0.41341 0.716582,0.41341 0.79926,0 1.55718,-0.46853 0.26872,-0.15848 0.43408,-0.32384 0.17226,-0.17226 0.29628,-0.17226 0.12402,0 0.2136,0.15159 0.0965,0.14469 0.0965,0.33073 0,0.36518 -0.20671,0.63389 -0.86816,0.86817 -2.58382,0.86817 -1.012852,0 -1.626082,-0.60634 -0.68902,-0.68902 -0.64768,-1.87413 z m 4.023872,-3.80338 q -0.72347,0 -1.39182,0.99219 -0.56499,0.85438 -0.909502,2.02571 1.150662,-0.11713 1.998152,-0.9095 0.77859,-0.74414 0.77859,-1.42627 0,-0.68213 -0.47542,-0.68213 z m 2.59071,6.04958 q -0.1378,-0.10335 -0.22048,-0.22737 -0.0827,-0.13092 -0.0896,-0.22049 -0.007,-0.0965 0.0345,-0.22738 0.0482,-0.1378 0.12402,-0.33073 1.4056,-3.45887 1.4056,-4.64398 -0.0207,-0.33073 -0.22738,-0.46853 l -0.1378,-0.0965 q -0.062,-0.0482 -0.0689,-0.16536 0,-0.12402 0.0896,-0.23427 0.0896,-0.11024 0.23426,-0.192916 0.29628,-0.15848 0.60634,-0.15848 0.31695,0 0.4892,0.0689 0.17915,0.0689 0.30317,0.186026 0.26183,0.24805 0.26183,0.52366 0.007,0.2756 -0.062,0.5581 -0.062,0.2825 -0.15159,0.55811 -0.0896,0.26871 -0.17914,0.51676 -0.0896,0.24116 -0.11713,0.35829 -0.0551,0.24116 -0.0413,0.30317 0.16537,-0.1447 0.19982,-0.2825 l 0.26872,-0.50987 q 0.89572,-1.61231 1.7501,-2.135956 0.24805,-0.1447 0.59256,-0.1447 0.3514,0 0.565,0.248046 0.21359,0.24116 0.22048,0.53744 0.0138,0.29627 -0.0413,0.49609 -0.0482,0.19292 -0.15158,0.36518 -0.22738,0.38585 -0.55122,0.38585 -0.0896,0 -0.16536,-0.062 l -0.15159,-0.13092 q -0.22737,-0.19981 -0.44097,-0.19981 -0.2067,0 -0.50987,0.27561 -0.29628,0.2756 -0.62012,0.70968 -1.08865,1.44005 -1.77767,3.22461 l -0.30317,0.79926 q -0.11713,0.29628 -0.2067,0.42719 -0.0896,0.12403 -0.26872,0.12403 -0.17225,0 -0.3514,-0.0689 -0.17225,-0.062 -0.31006,-0.16537 z m 11.04497,-1.66742 q 0,0.63389 0.44786,0.63389 0.31006,0 0.50988,-0.0965 0.2067,-0.0965 0.2756,-0.0965 0.1447,0 0.1447,0.15158 0,0.59256 -0.62012,1.01975 -0.65457,0.44786 -1.3367,0.22049 -0.44786,-0.15848 -0.66145,-0.68213 -0.10336,-0.26872 -0.10336,-0.48921 0,-0.35829 0.0689,-0.75792 -0.64079,1.30914 -1.59164,1.80523 -0.37896,0.19293 -0.80615,0.19293 -0.42719,0 -0.74414,-0.17226 -0.31006,-0.17914 -0.53054,-0.4892 -0.44787,-0.64768 -0.40652,-1.62608 0.0413,-1.22646 0.72346,-2.40468 0.62701,-1.10243 1.58475,-1.79834 0.95773,-0.709686 1.79145,-0.709686 0.83371,0 1.34358,0.764806 0.47542,-0.764806 0.8406,-0.764806 0.39275,0 0.59256,0.1447 0.37896,0.275606 0.26872,0.482306 -1.72944,3.54156 -1.77767,4.40972 -0.0138,0.12402 -0.0138,0.26183 z m -3.82405,0.0276 q 0,0.82682 0.53054,0.82682 0.40652,0 0.99908,-0.68902 0.86816,-1.01286 1.53651,-2.72851 0.21359,-0.53744 0.35829,-1.07487 -0.0276,-0.46853 -0.39274,-0.68902 -0.12403,-0.0758 -0.37207,-0.0758 -0.24116,0 -0.57189,0.17914 -0.32384,0.17915 -0.63389,0.48921 -0.30317,0.31005 -0.57189,0.73725 -0.26183,0.4203 -0.46164,0.91639 -0.4203,1.06109 -0.4203,2.1084 z m 7.22091,-1.91547 q -0.39274,0 -0.39274,-0.30317 0,-0.27561 0.19981,-0.51677 0.35829,-0.43408 0.55811,-0.4203 h 3.18326 q 0.30317,0 0.30317,0.27561 0,0.28939 -0.19981,0.53054 -0.3514,0.43409 -0.60634,0.43409 z m 6.38032,0 q -0.39275,0 -0.39275,-0.30317 0,-0.27561 0.19982,-0.51677 0.35829,-0.43408 0.55811,-0.4203 h 3.18326 q 0.30317,0 0.30317,0.27561 0,0.28939 -0.19982,0.53054 -0.3514,0.43409 -0.60633,0.43409 z"
       id="text2"
       style="font-size:14.1111px;line-height:1;font-family:Courgette;-inkscape-font-specification:Courgette;stroke:#000000;stroke-width:0.079375"
       aria-label="BD1 --Chimera--" />
  </g>
</svg>
