%TF.GenerationSoftware,KiCad,Pcbnew,9.0.0-1.fc40*%
%TF.CreationDate,2025-05-08T22:38:50+02:00*%
%TF.ProjectId,CNC pcb,434e4320-7063-4622-9e6b-696361645f70,rev?*%
%TF.SameCoordinates,Original*%
%TF.FileFunction,Legend,Bot*%
%TF.FilePolarity,Positive*%
%FSLAX46Y46*%
G04 Gerber Fmt 4.6, Leading zero omitted, Abs format (unit mm)*
G04 Created by KiCad (PCBNEW 9.0.0-1.fc40) date 2025-05-08 22:38:50*
%MOMM*%
%LPD*%
G01*
G04 APERTURE LIST*
%ADD10C,0.300000*%
%ADD11C,0.000000*%
G04 APERTURE END LIST*
D10*
X138015114Y-80771871D02*
X138086542Y-81200443D01*
X138086542Y-81200443D02*
X138157971Y-81343300D01*
X138157971Y-81343300D02*
X138300828Y-81486157D01*
X138300828Y-81486157D02*
X138515114Y-81486157D01*
X138515114Y-81486157D02*
X138657971Y-81343300D01*
X138657971Y-81343300D02*
X138729400Y-81200443D01*
X138729400Y-81200443D02*
X138800828Y-80914728D01*
X138800828Y-80914728D02*
X138800828Y-79771871D01*
X138800828Y-79771871D02*
X137300828Y-79771871D01*
X137300828Y-79771871D02*
X137300828Y-80771871D01*
X137300828Y-80771871D02*
X137372257Y-81057586D01*
X137372257Y-81057586D02*
X137443685Y-81200443D01*
X137443685Y-81200443D02*
X137586542Y-81343300D01*
X137586542Y-81343300D02*
X137729400Y-81343300D01*
X137729400Y-81343300D02*
X137872257Y-81200443D01*
X137872257Y-81200443D02*
X137943685Y-81057586D01*
X137943685Y-81057586D02*
X138015114Y-80771871D01*
X138015114Y-80771871D02*
X138015114Y-79771871D01*
X138800828Y-82771871D02*
X137300828Y-82771871D01*
X137300828Y-82771871D02*
X137300828Y-83486157D01*
X137300828Y-83486157D02*
X137372257Y-83914728D01*
X137372257Y-83914728D02*
X137515114Y-84200443D01*
X137515114Y-84200443D02*
X137657971Y-84343300D01*
X137657971Y-84343300D02*
X137943685Y-84486157D01*
X137943685Y-84486157D02*
X138157971Y-84486157D01*
X138157971Y-84486157D02*
X138443685Y-84343300D01*
X138443685Y-84343300D02*
X138586542Y-84200443D01*
X138586542Y-84200443D02*
X138729400Y-83914728D01*
X138729400Y-83914728D02*
X138800828Y-83486157D01*
X138800828Y-83486157D02*
X138800828Y-82771871D01*
X138800828Y-87343300D02*
X138800828Y-85629014D01*
X138800828Y-86486157D02*
X137300828Y-86486157D01*
X137300828Y-86486157D02*
X137515114Y-86200443D01*
X137515114Y-86200443D02*
X137657971Y-85914728D01*
X137657971Y-85914728D02*
X137729400Y-85629014D01*
X137300828Y-90771871D02*
X137586542Y-90771871D01*
X137300828Y-91914728D02*
X137586542Y-91914728D01*
X138729400Y-94486157D02*
X138800828Y-94200442D01*
X138800828Y-94200442D02*
X138800828Y-93629014D01*
X138800828Y-93629014D02*
X138729400Y-93343299D01*
X138729400Y-93343299D02*
X138657971Y-93200442D01*
X138657971Y-93200442D02*
X138515114Y-93057585D01*
X138515114Y-93057585D02*
X138086542Y-93057585D01*
X138086542Y-93057585D02*
X137943685Y-93200442D01*
X137943685Y-93200442D02*
X137872257Y-93343299D01*
X137872257Y-93343299D02*
X137800828Y-93629014D01*
X137800828Y-93629014D02*
X137800828Y-94200442D01*
X137800828Y-94200442D02*
X137872257Y-94486157D01*
X138800828Y-95771871D02*
X137300828Y-95771871D01*
X138800828Y-97057586D02*
X138015114Y-97057586D01*
X138015114Y-97057586D02*
X137872257Y-96914728D01*
X137872257Y-96914728D02*
X137800828Y-96629014D01*
X137800828Y-96629014D02*
X137800828Y-96200443D01*
X137800828Y-96200443D02*
X137872257Y-95914728D01*
X137872257Y-95914728D02*
X137943685Y-95771871D01*
X138800828Y-98486157D02*
X137800828Y-98486157D01*
X137300828Y-98486157D02*
X137372257Y-98343300D01*
X137372257Y-98343300D02*
X137443685Y-98486157D01*
X137443685Y-98486157D02*
X137372257Y-98629014D01*
X137372257Y-98629014D02*
X137300828Y-98486157D01*
X137300828Y-98486157D02*
X137443685Y-98486157D01*
X138800828Y-99914728D02*
X137800828Y-99914728D01*
X137943685Y-99914728D02*
X137872257Y-100057585D01*
X137872257Y-100057585D02*
X137800828Y-100343300D01*
X137800828Y-100343300D02*
X137800828Y-100771871D01*
X137800828Y-100771871D02*
X137872257Y-101057585D01*
X137872257Y-101057585D02*
X138015114Y-101200443D01*
X138015114Y-101200443D02*
X138800828Y-101200443D01*
X138015114Y-101200443D02*
X137872257Y-101343300D01*
X137872257Y-101343300D02*
X137800828Y-101629014D01*
X137800828Y-101629014D02*
X137800828Y-102057585D01*
X137800828Y-102057585D02*
X137872257Y-102343300D01*
X137872257Y-102343300D02*
X138015114Y-102486157D01*
X138015114Y-102486157D02*
X138800828Y-102486157D01*
X138729400Y-105057585D02*
X138800828Y-104771871D01*
X138800828Y-104771871D02*
X138800828Y-104200443D01*
X138800828Y-104200443D02*
X138729400Y-103914728D01*
X138729400Y-103914728D02*
X138586542Y-103771871D01*
X138586542Y-103771871D02*
X138015114Y-103771871D01*
X138015114Y-103771871D02*
X137872257Y-103914728D01*
X137872257Y-103914728D02*
X137800828Y-104200443D01*
X137800828Y-104200443D02*
X137800828Y-104771871D01*
X137800828Y-104771871D02*
X137872257Y-105057585D01*
X137872257Y-105057585D02*
X138015114Y-105200443D01*
X138015114Y-105200443D02*
X138157971Y-105200443D01*
X138157971Y-105200443D02*
X138300828Y-103771871D01*
X138800828Y-106486157D02*
X137800828Y-106486157D01*
X138086542Y-106486157D02*
X137943685Y-106629014D01*
X137943685Y-106629014D02*
X137872257Y-106771872D01*
X137872257Y-106771872D02*
X137800828Y-107057586D01*
X137800828Y-107057586D02*
X137800828Y-107343300D01*
X138800828Y-109629015D02*
X138015114Y-109629015D01*
X138015114Y-109629015D02*
X137872257Y-109486157D01*
X137872257Y-109486157D02*
X137800828Y-109200443D01*
X137800828Y-109200443D02*
X137800828Y-108629015D01*
X137800828Y-108629015D02*
X137872257Y-108343300D01*
X138729400Y-109629015D02*
X138800828Y-109343300D01*
X138800828Y-109343300D02*
X138800828Y-108629015D01*
X138800828Y-108629015D02*
X138729400Y-108343300D01*
X138729400Y-108343300D02*
X138586542Y-108200443D01*
X138586542Y-108200443D02*
X138443685Y-108200443D01*
X138443685Y-108200443D02*
X138300828Y-108343300D01*
X138300828Y-108343300D02*
X138229400Y-108629015D01*
X138229400Y-108629015D02*
X138229400Y-109343300D01*
X138229400Y-109343300D02*
X138157971Y-109629015D01*
X137300828Y-110914729D02*
X137586542Y-110914729D01*
X137300828Y-112057586D02*
X137586542Y-112057586D01*
X81715114Y-81571871D02*
X81786542Y-82000443D01*
X81786542Y-82000443D02*
X81857971Y-82143300D01*
X81857971Y-82143300D02*
X82000828Y-82286157D01*
X82000828Y-82286157D02*
X82215114Y-82286157D01*
X82215114Y-82286157D02*
X82357971Y-82143300D01*
X82357971Y-82143300D02*
X82429400Y-82000443D01*
X82429400Y-82000443D02*
X82500828Y-81714728D01*
X82500828Y-81714728D02*
X82500828Y-80571871D01*
X82500828Y-80571871D02*
X81000828Y-80571871D01*
X81000828Y-80571871D02*
X81000828Y-81571871D01*
X81000828Y-81571871D02*
X81072257Y-81857586D01*
X81072257Y-81857586D02*
X81143685Y-82000443D01*
X81143685Y-82000443D02*
X81286542Y-82143300D01*
X81286542Y-82143300D02*
X81429400Y-82143300D01*
X81429400Y-82143300D02*
X81572257Y-82000443D01*
X81572257Y-82000443D02*
X81643685Y-81857586D01*
X81643685Y-81857586D02*
X81715114Y-81571871D01*
X81715114Y-81571871D02*
X81715114Y-80571871D01*
X82500828Y-83571871D02*
X81000828Y-83571871D01*
X81000828Y-83571871D02*
X81000828Y-84286157D01*
X81000828Y-84286157D02*
X81072257Y-84714728D01*
X81072257Y-84714728D02*
X81215114Y-85000443D01*
X81215114Y-85000443D02*
X81357971Y-85143300D01*
X81357971Y-85143300D02*
X81643685Y-85286157D01*
X81643685Y-85286157D02*
X81857971Y-85286157D01*
X81857971Y-85286157D02*
X82143685Y-85143300D01*
X82143685Y-85143300D02*
X82286542Y-85000443D01*
X82286542Y-85000443D02*
X82429400Y-84714728D01*
X82429400Y-84714728D02*
X82500828Y-84286157D01*
X82500828Y-84286157D02*
X82500828Y-83571871D01*
X82500828Y-88143300D02*
X82500828Y-86429014D01*
X82500828Y-87286157D02*
X81000828Y-87286157D01*
X81000828Y-87286157D02*
X81215114Y-87000443D01*
X81215114Y-87000443D02*
X81357971Y-86714728D01*
X81357971Y-86714728D02*
X81429400Y-86429014D01*
X81000828Y-91571871D02*
X81286542Y-91571871D01*
X81000828Y-92714728D02*
X81286542Y-92714728D01*
X82429400Y-95286157D02*
X82500828Y-95000442D01*
X82500828Y-95000442D02*
X82500828Y-94429014D01*
X82500828Y-94429014D02*
X82429400Y-94143299D01*
X82429400Y-94143299D02*
X82357971Y-94000442D01*
X82357971Y-94000442D02*
X82215114Y-93857585D01*
X82215114Y-93857585D02*
X81786542Y-93857585D01*
X81786542Y-93857585D02*
X81643685Y-94000442D01*
X81643685Y-94000442D02*
X81572257Y-94143299D01*
X81572257Y-94143299D02*
X81500828Y-94429014D01*
X81500828Y-94429014D02*
X81500828Y-95000442D01*
X81500828Y-95000442D02*
X81572257Y-95286157D01*
X82500828Y-96571871D02*
X81000828Y-96571871D01*
X82500828Y-97857586D02*
X81715114Y-97857586D01*
X81715114Y-97857586D02*
X81572257Y-97714728D01*
X81572257Y-97714728D02*
X81500828Y-97429014D01*
X81500828Y-97429014D02*
X81500828Y-97000443D01*
X81500828Y-97000443D02*
X81572257Y-96714728D01*
X81572257Y-96714728D02*
X81643685Y-96571871D01*
X82500828Y-99286157D02*
X81500828Y-99286157D01*
X81000828Y-99286157D02*
X81072257Y-99143300D01*
X81072257Y-99143300D02*
X81143685Y-99286157D01*
X81143685Y-99286157D02*
X81072257Y-99429014D01*
X81072257Y-99429014D02*
X81000828Y-99286157D01*
X81000828Y-99286157D02*
X81143685Y-99286157D01*
X82500828Y-100714728D02*
X81500828Y-100714728D01*
X81643685Y-100714728D02*
X81572257Y-100857585D01*
X81572257Y-100857585D02*
X81500828Y-101143300D01*
X81500828Y-101143300D02*
X81500828Y-101571871D01*
X81500828Y-101571871D02*
X81572257Y-101857585D01*
X81572257Y-101857585D02*
X81715114Y-102000443D01*
X81715114Y-102000443D02*
X82500828Y-102000443D01*
X81715114Y-102000443D02*
X81572257Y-102143300D01*
X81572257Y-102143300D02*
X81500828Y-102429014D01*
X81500828Y-102429014D02*
X81500828Y-102857585D01*
X81500828Y-102857585D02*
X81572257Y-103143300D01*
X81572257Y-103143300D02*
X81715114Y-103286157D01*
X81715114Y-103286157D02*
X82500828Y-103286157D01*
X82429400Y-105857585D02*
X82500828Y-105571871D01*
X82500828Y-105571871D02*
X82500828Y-105000443D01*
X82500828Y-105000443D02*
X82429400Y-104714728D01*
X82429400Y-104714728D02*
X82286542Y-104571871D01*
X82286542Y-104571871D02*
X81715114Y-104571871D01*
X81715114Y-104571871D02*
X81572257Y-104714728D01*
X81572257Y-104714728D02*
X81500828Y-105000443D01*
X81500828Y-105000443D02*
X81500828Y-105571871D01*
X81500828Y-105571871D02*
X81572257Y-105857585D01*
X81572257Y-105857585D02*
X81715114Y-106000443D01*
X81715114Y-106000443D02*
X81857971Y-106000443D01*
X81857971Y-106000443D02*
X82000828Y-104571871D01*
X82500828Y-107286157D02*
X81500828Y-107286157D01*
X81786542Y-107286157D02*
X81643685Y-107429014D01*
X81643685Y-107429014D02*
X81572257Y-107571872D01*
X81572257Y-107571872D02*
X81500828Y-107857586D01*
X81500828Y-107857586D02*
X81500828Y-108143300D01*
X82500828Y-110429015D02*
X81715114Y-110429015D01*
X81715114Y-110429015D02*
X81572257Y-110286157D01*
X81572257Y-110286157D02*
X81500828Y-110000443D01*
X81500828Y-110000443D02*
X81500828Y-109429015D01*
X81500828Y-109429015D02*
X81572257Y-109143300D01*
X82429400Y-110429015D02*
X82500828Y-110143300D01*
X82500828Y-110143300D02*
X82500828Y-109429015D01*
X82500828Y-109429015D02*
X82429400Y-109143300D01*
X82429400Y-109143300D02*
X82286542Y-109000443D01*
X82286542Y-109000443D02*
X82143685Y-109000443D01*
X82143685Y-109000443D02*
X82000828Y-109143300D01*
X82000828Y-109143300D02*
X81929400Y-109429015D01*
X81929400Y-109429015D02*
X81929400Y-110143300D01*
X81929400Y-110143300D02*
X81857971Y-110429015D01*
X81000828Y-111714729D02*
X81286542Y-111714729D01*
X81000828Y-112857586D02*
X81286542Y-112857586D01*
D11*
%TO.C,REF\u002A\u002A*%
G36*
X93494177Y-77721839D02*
G01*
X93578349Y-77739514D01*
X93633924Y-77767827D01*
X93654612Y-77801531D01*
X93673135Y-77880204D01*
X93672718Y-77963161D01*
X93651236Y-78019498D01*
X93642954Y-78032371D01*
X93618269Y-78099760D01*
X93588689Y-78207460D01*
X93557352Y-78340751D01*
X93527397Y-78484919D01*
X93501961Y-78625248D01*
X93484185Y-78747021D01*
X93477205Y-78835522D01*
X93475141Y-78903445D01*
X93460245Y-78982474D01*
X93421407Y-79032057D01*
X93347481Y-79072555D01*
X93311737Y-79082651D01*
X93214947Y-79075476D01*
X93120676Y-79034362D01*
X93057549Y-78969487D01*
X93047877Y-78938690D01*
X93041346Y-78840092D01*
X93049830Y-78699168D01*
X93072412Y-78527408D01*
X93108172Y-78336309D01*
X93149811Y-78156739D01*
X93202934Y-77978411D01*
X93259394Y-77851552D01*
X93322787Y-77770282D01*
X93396712Y-77728726D01*
X93484764Y-77721007D01*
X93494177Y-77721839D01*
G37*
G36*
X85027238Y-70881128D02*
G01*
X85092101Y-70937355D01*
X85133369Y-71047894D01*
X85151413Y-71213912D01*
X85146614Y-71436576D01*
X85135913Y-71632639D01*
X85127371Y-71861703D01*
X85122510Y-72089702D01*
X85121291Y-72306492D01*
X85123677Y-72501927D01*
X85129628Y-72665866D01*
X85139105Y-72788160D01*
X85152068Y-72858669D01*
X85172579Y-72937589D01*
X85178680Y-73048043D01*
X85159172Y-73138241D01*
X85116115Y-73189218D01*
X85106167Y-73193477D01*
X84998201Y-73211048D01*
X84884566Y-73191771D01*
X84795897Y-73140323D01*
X84789837Y-73133874D01*
X84740051Y-73053126D01*
X84708318Y-72956038D01*
X84708137Y-72955010D01*
X84697695Y-72853845D01*
X84691470Y-72703879D01*
X84689259Y-72517999D01*
X84690861Y-72309087D01*
X84696069Y-72090032D01*
X84704682Y-71873716D01*
X84716495Y-71673025D01*
X84731305Y-71500844D01*
X84738481Y-71431249D01*
X84747473Y-71338108D01*
X84752074Y-71282139D01*
X84756808Y-71232910D01*
X84787317Y-71102820D01*
X84837452Y-70989566D01*
X84899373Y-70908172D01*
X84965241Y-70873661D01*
X85027238Y-70881128D01*
G37*
G36*
X93039267Y-79353199D02*
G01*
X93134164Y-79405139D01*
X93145608Y-79414386D01*
X93210155Y-79465899D01*
X93250670Y-79497207D01*
X93259755Y-79505227D01*
X93286227Y-79569695D01*
X93279916Y-79653250D01*
X93241864Y-79728474D01*
X93198703Y-79778768D01*
X93170615Y-79812343D01*
X93167857Y-79820939D01*
X93168187Y-79879276D01*
X93177959Y-79975907D01*
X93194704Y-80094474D01*
X93215954Y-80218624D01*
X93239237Y-80332004D01*
X93262088Y-80418259D01*
X93279964Y-80477581D01*
X93312327Y-80652433D01*
X93302154Y-80787354D01*
X93249892Y-80880202D01*
X93155987Y-80928826D01*
X93137684Y-80931188D01*
X93106869Y-80918865D01*
X93073767Y-80873828D01*
X93027533Y-80783829D01*
X93022887Y-80774138D01*
X92957330Y-80618232D01*
X92895395Y-80438152D01*
X92839185Y-80244239D01*
X92790801Y-80046835D01*
X92752350Y-79856283D01*
X92725932Y-79682923D01*
X92713650Y-79537098D01*
X92717607Y-79429151D01*
X92739909Y-79369421D01*
X92751797Y-79363593D01*
X92812181Y-79351092D01*
X92901342Y-79341908D01*
X92920416Y-79340924D01*
X93039267Y-79353199D01*
G37*
G36*
X82848934Y-67118472D02*
G01*
X82907075Y-67134600D01*
X82991861Y-67152664D01*
X83012399Y-67157032D01*
X83108281Y-67196654D01*
X83156564Y-67254537D01*
X83150067Y-67322950D01*
X83081445Y-67483267D01*
X83009037Y-67770726D01*
X82981243Y-68096397D01*
X82998039Y-68457310D01*
X83059401Y-68850496D01*
X83165306Y-69272986D01*
X83176824Y-69314218D01*
X83205610Y-69475327D01*
X83194150Y-69591950D01*
X83141651Y-69666979D01*
X83047320Y-69703302D01*
X83029069Y-69705677D01*
X82987834Y-69700495D01*
X82953197Y-69666416D01*
X82908558Y-69589872D01*
X82872197Y-69516261D01*
X82794635Y-69318764D01*
X82722985Y-69082376D01*
X82662324Y-68822918D01*
X82636811Y-68699513D01*
X82617056Y-68624811D01*
X82596762Y-68587554D01*
X82569548Y-68576039D01*
X82529030Y-68578565D01*
X82463259Y-68579123D01*
X82369058Y-68562958D01*
X82363878Y-68561269D01*
X82306275Y-68536598D01*
X82268772Y-68501953D01*
X82251653Y-68449315D01*
X82255205Y-68370673D01*
X82279715Y-68258010D01*
X82325466Y-68103312D01*
X82392745Y-67898564D01*
X82439962Y-67758409D01*
X82494519Y-67597256D01*
X82540779Y-67461481D01*
X82574941Y-67362229D01*
X82593206Y-67310648D01*
X82607216Y-67283821D01*
X82660071Y-67221163D01*
X82729150Y-67162480D01*
X82795864Y-67122379D01*
X82841626Y-67115462D01*
X82848934Y-67118472D01*
G37*
G36*
X92471147Y-76294517D02*
G01*
X92559834Y-76342859D01*
X92571174Y-76355664D01*
X92622523Y-76433083D01*
X92687548Y-76552161D01*
X92759660Y-76700270D01*
X92832267Y-76864783D01*
X92841977Y-76886702D01*
X92868609Y-76938090D01*
X92900934Y-77000791D01*
X92945439Y-77114603D01*
X92987550Y-77247009D01*
X93021908Y-77379044D01*
X93043159Y-77491742D01*
X93045950Y-77566134D01*
X93026783Y-77639235D01*
X92960450Y-77744406D01*
X92861827Y-77801092D01*
X92738827Y-77805935D01*
X92599366Y-77755579D01*
X92471631Y-77685945D01*
X92524405Y-77786679D01*
X92525636Y-77789023D01*
X92576140Y-77880638D01*
X92623836Y-77960574D01*
X92647894Y-78029559D01*
X92638070Y-78135598D01*
X92614320Y-78199090D01*
X92580389Y-78236578D01*
X92518422Y-78255631D01*
X92500057Y-78258842D01*
X92377173Y-78253704D01*
X92264826Y-78209752D01*
X92186823Y-78135606D01*
X92143467Y-78049241D01*
X92095737Y-77923804D01*
X92051514Y-77780878D01*
X92014587Y-77635523D01*
X91988746Y-77502802D01*
X91977783Y-77397776D01*
X91985485Y-77335507D01*
X91986991Y-77332616D01*
X92063640Y-77251219D01*
X92182643Y-77203714D01*
X92331777Y-77195063D01*
X92493182Y-77207589D01*
X92384084Y-76941391D01*
X92364811Y-76894965D01*
X92306392Y-76760134D01*
X92251069Y-76639871D01*
X92208656Y-76555750D01*
X92166430Y-76472951D01*
X92141501Y-76386353D01*
X92163695Y-76331880D01*
X92237809Y-76301475D01*
X92368641Y-76287083D01*
X92471147Y-76294517D01*
G37*
G36*
X95320699Y-79867596D02*
G01*
X95424661Y-79878685D01*
X95541107Y-79896775D01*
X95651509Y-79918345D01*
X95737342Y-79939873D01*
X95780080Y-79957842D01*
X95786379Y-79979989D01*
X95794649Y-80053986D01*
X95801637Y-80165951D01*
X95806289Y-80302034D01*
X95814041Y-80491164D01*
X95828313Y-80646813D01*
X95847995Y-80756081D01*
X95872139Y-80813772D01*
X95899796Y-80814687D01*
X95900531Y-80813895D01*
X95920598Y-80768383D01*
X95945415Y-80680764D01*
X95969787Y-80569260D01*
X95973543Y-80550120D01*
X96014599Y-80399683D01*
X96070534Y-80300651D01*
X96149017Y-80243709D01*
X96257715Y-80219545D01*
X96300038Y-80217503D01*
X96401313Y-80235230D01*
X96457390Y-80291648D01*
X96469937Y-80389607D01*
X96440624Y-80531961D01*
X96427796Y-80578129D01*
X96395417Y-80714213D01*
X96358415Y-80889958D01*
X96319696Y-81090604D01*
X96282162Y-81301385D01*
X96248718Y-81507536D01*
X96231566Y-81606842D01*
X96203379Y-81734114D01*
X96174498Y-81830767D01*
X96149049Y-81881328D01*
X96133384Y-81894852D01*
X96039332Y-81935076D01*
X95924041Y-81942265D01*
X95814509Y-81913797D01*
X95770569Y-81886861D01*
X95733193Y-81842646D01*
X95698882Y-81768558D01*
X95658690Y-81649419D01*
X95588614Y-81426454D01*
X95446296Y-81375150D01*
X95401440Y-81357840D01*
X95316750Y-81318647D01*
X95266150Y-81286015D01*
X95253675Y-81268410D01*
X95219364Y-81194011D01*
X95177588Y-81080601D01*
X95132893Y-80942619D01*
X95089828Y-80794509D01*
X95052937Y-80650712D01*
X95026768Y-80525670D01*
X95015839Y-80459115D01*
X94994088Y-80292532D01*
X94982391Y-80144922D01*
X94981594Y-80030206D01*
X94992542Y-79962303D01*
X94998054Y-79951944D01*
X95060344Y-79903428D01*
X95165472Y-79873300D01*
X95298316Y-79866306D01*
X95320699Y-79867596D01*
G37*
G36*
X91150496Y-74987776D02*
G01*
X91272277Y-75015606D01*
X91351396Y-75048632D01*
X91479586Y-75136968D01*
X91597690Y-75269994D01*
X91714209Y-75456184D01*
X91839982Y-75703302D01*
X91938752Y-75948020D01*
X91990882Y-76154561D01*
X91996201Y-76322217D01*
X91954537Y-76450282D01*
X91934615Y-76479083D01*
X91904792Y-76499063D01*
X91871298Y-76484580D01*
X91828814Y-76430053D01*
X91772021Y-76329899D01*
X91695600Y-76178538D01*
X91681347Y-76149704D01*
X91555308Y-75906203D01*
X91437799Y-75699493D01*
X91331679Y-75533748D01*
X91239811Y-75413146D01*
X91165054Y-75341861D01*
X91110270Y-75324072D01*
X91084086Y-75352093D01*
X91053410Y-75420294D01*
X91028698Y-75505032D01*
X91018257Y-75582943D01*
X91023984Y-75615884D01*
X91058127Y-75645035D01*
X91137540Y-75669496D01*
X91150993Y-75673064D01*
X91248896Y-75713519D01*
X91325370Y-75766454D01*
X91327917Y-75769029D01*
X91382927Y-75837995D01*
X91436153Y-75924008D01*
X91475393Y-76005145D01*
X91488446Y-76059483D01*
X91488775Y-76076722D01*
X91495693Y-76143549D01*
X91508611Y-76236687D01*
X91516438Y-76289363D01*
X91527436Y-76369737D01*
X91531699Y-76410966D01*
X91532081Y-76415839D01*
X91542822Y-76467029D01*
X91563760Y-76545969D01*
X91577601Y-76602472D01*
X91595361Y-76749661D01*
X91588104Y-76883444D01*
X91556209Y-76981982D01*
X91518867Y-77025174D01*
X91459943Y-77045784D01*
X91360315Y-77048640D01*
X91198964Y-77024057D01*
X91025309Y-76942657D01*
X90876757Y-76806117D01*
X90754874Y-76615950D01*
X90661227Y-76373671D01*
X90639679Y-76298299D01*
X90588312Y-76079815D01*
X90565329Y-75889936D01*
X90569304Y-75709087D01*
X90598808Y-75517697D01*
X90606154Y-75481256D01*
X90627287Y-75366235D01*
X90640326Y-75278524D01*
X90642690Y-75234764D01*
X90646362Y-75217691D01*
X90681511Y-75163409D01*
X90742633Y-75094771D01*
X90810059Y-75034486D01*
X90889263Y-74993670D01*
X90991926Y-74977976D01*
X91021031Y-74977081D01*
X91150496Y-74987776D01*
G37*
G36*
X85792971Y-69694182D02*
G01*
X85834926Y-69705671D01*
X85836026Y-69706844D01*
X85863732Y-69751711D01*
X85907028Y-69836157D01*
X85958210Y-69943590D01*
X86009572Y-70057412D01*
X86053409Y-70161031D01*
X86082018Y-70237850D01*
X86083259Y-70241675D01*
X86113825Y-70321352D01*
X86161624Y-70432174D01*
X86216869Y-70551387D01*
X86220798Y-70559571D01*
X86276596Y-70678510D01*
X86325333Y-70786881D01*
X86356854Y-70862136D01*
X86397855Y-70971079D01*
X86451928Y-71118851D01*
X86501158Y-71257578D01*
X86541294Y-71375011D01*
X86568082Y-71458896D01*
X86577267Y-71496985D01*
X86577775Y-71505770D01*
X86590029Y-71562376D01*
X86613695Y-71645198D01*
X86638685Y-71737887D01*
X86661308Y-71919919D01*
X86643026Y-72067774D01*
X86588419Y-72177055D01*
X86502055Y-72243367D01*
X86388512Y-72262316D01*
X86252364Y-72229507D01*
X86098183Y-72140544D01*
X86080516Y-72128203D01*
X86018077Y-72094811D01*
X85982340Y-72091912D01*
X85978204Y-72096854D01*
X85980448Y-72126699D01*
X85997096Y-72140319D01*
X86042881Y-72215761D01*
X86041342Y-72299696D01*
X85999635Y-72377171D01*
X85924916Y-72433234D01*
X85824339Y-72452932D01*
X85778361Y-72447115D01*
X85690701Y-72402485D01*
X85618614Y-72310234D01*
X85559074Y-72165673D01*
X85509057Y-71964115D01*
X85493027Y-71882395D01*
X85464938Y-71723084D01*
X85451718Y-71609133D01*
X85453177Y-71530079D01*
X85469122Y-71475465D01*
X85499362Y-71434829D01*
X85512863Y-71422882D01*
X85608170Y-71373804D01*
X85731515Y-71345879D01*
X85855799Y-71345871D01*
X85892635Y-71353879D01*
X85950433Y-71389368D01*
X86008026Y-71465616D01*
X86052629Y-71533048D01*
X86100213Y-71591782D01*
X86121873Y-71595657D01*
X86117847Y-71545467D01*
X86088376Y-71442005D01*
X86033697Y-71286068D01*
X85954050Y-71078449D01*
X85849674Y-70819941D01*
X85720808Y-70511341D01*
X85686890Y-70430896D01*
X85611732Y-70250646D01*
X85546556Y-70091596D01*
X85494970Y-69962704D01*
X85460580Y-69872923D01*
X85446991Y-69831211D01*
X85446945Y-69830863D01*
X85465158Y-69761751D01*
X85539281Y-69715161D01*
X85666860Y-69692640D01*
X85712445Y-69690830D01*
X85792971Y-69694182D01*
G37*
G36*
X94457540Y-76083673D02*
G01*
X94568213Y-76110587D01*
X94667425Y-76154815D01*
X94746036Y-76211607D01*
X94818058Y-76295160D01*
X94899451Y-76420405D01*
X94920046Y-76454726D01*
X94993083Y-76586443D01*
X95040906Y-76700529D01*
X95072904Y-76823470D01*
X95098472Y-76981760D01*
X95107312Y-77062328D01*
X95118085Y-77222031D01*
X95125506Y-77412712D01*
X95129461Y-77618891D01*
X95129832Y-77825089D01*
X95126504Y-78015829D01*
X95119361Y-78175631D01*
X95108286Y-78289017D01*
X95092659Y-78384615D01*
X95057377Y-78580409D01*
X95013543Y-78807465D01*
X94964860Y-79047681D01*
X94915027Y-79282955D01*
X94867746Y-79495184D01*
X94826717Y-79666267D01*
X94800690Y-79775535D01*
X94770796Y-79921863D01*
X94750889Y-80046073D01*
X94744316Y-80129352D01*
X94736492Y-80221662D01*
X94690985Y-80312828D01*
X94604291Y-80359084D01*
X94475466Y-80360831D01*
X94303562Y-80318478D01*
X94208793Y-80276960D01*
X94052809Y-80160982D01*
X93918002Y-79998982D01*
X93811750Y-79800703D01*
X93776972Y-79689519D01*
X94228675Y-79689519D01*
X94239906Y-79733457D01*
X94258875Y-79745113D01*
X94304402Y-79734751D01*
X94321668Y-79710196D01*
X94325471Y-79663816D01*
X94293538Y-79642082D01*
X94259430Y-79651114D01*
X94228675Y-79689519D01*
X93776972Y-79689519D01*
X93741429Y-79575888D01*
X93734888Y-79531774D01*
X93741328Y-79418009D01*
X93776741Y-79322514D01*
X93834866Y-79266057D01*
X93840756Y-79261450D01*
X93850636Y-79242321D01*
X93867077Y-79210491D01*
X93896061Y-79118422D01*
X93922429Y-79001206D01*
X93949882Y-78877485D01*
X94000276Y-78740158D01*
X94067997Y-78651987D01*
X94159655Y-78605462D01*
X94281862Y-78593077D01*
X94315404Y-78594293D01*
X94423189Y-78614974D01*
X94497715Y-78665917D01*
X94515564Y-78683978D01*
X94559031Y-78712417D01*
X94583994Y-78692263D01*
X94584089Y-78692050D01*
X94615282Y-78588636D01*
X94642342Y-78435224D01*
X94664692Y-78243709D01*
X94681759Y-78025985D01*
X94692967Y-77793944D01*
X94697741Y-77559481D01*
X94695506Y-77334490D01*
X94685687Y-77130863D01*
X94667710Y-76960497D01*
X94665871Y-76948293D01*
X94614468Y-76698113D01*
X94545143Y-76497955D01*
X94459460Y-76350543D01*
X94358985Y-76258601D01*
X94245280Y-76224855D01*
X94229028Y-76224274D01*
X94156918Y-76216009D01*
X94133163Y-76193318D01*
X94146025Y-76146996D01*
X94164819Y-76123945D01*
X94237073Y-76091969D01*
X94340903Y-76078005D01*
X94457540Y-76083673D01*
G37*
G36*
X81249407Y-65069785D02*
G01*
X81298165Y-65087300D01*
X81404472Y-65152293D01*
X81489119Y-65253222D01*
X81558151Y-65398748D01*
X81617612Y-65597538D01*
X81624502Y-65624897D01*
X81659811Y-65746919D01*
X81692760Y-65818519D01*
X81729188Y-65848979D01*
X81774936Y-65847584D01*
X81789302Y-65845495D01*
X81861234Y-65850066D01*
X81953131Y-65868308D01*
X82007644Y-65884722D01*
X82090046Y-65930031D01*
X82159536Y-66009552D01*
X82218574Y-66114389D01*
X82281699Y-66271315D01*
X82338731Y-66455203D01*
X82385693Y-66649395D01*
X82418607Y-66837235D01*
X82433497Y-67002064D01*
X82426385Y-67127228D01*
X82414241Y-67176589D01*
X82372311Y-67271066D01*
X82318867Y-67326341D01*
X82262920Y-67331174D01*
X82256034Y-67324845D01*
X82225717Y-67271647D01*
X82182397Y-67174639D01*
X82130801Y-67044882D01*
X82075662Y-66893432D01*
X82041794Y-66796660D01*
X81974852Y-66608385D01*
X81923317Y-66469426D01*
X81884362Y-66373055D01*
X81855160Y-66312546D01*
X81832891Y-66281173D01*
X81814725Y-66272210D01*
X81813188Y-66272341D01*
X81790215Y-66305365D01*
X81769580Y-66389640D01*
X81753111Y-66515049D01*
X81742634Y-66671479D01*
X81736178Y-66759758D01*
X81716202Y-66901299D01*
X81687657Y-67033315D01*
X81654570Y-67138339D01*
X81620970Y-67198904D01*
X81615837Y-67203694D01*
X81536543Y-67240245D01*
X81438235Y-67245788D01*
X81354013Y-67217957D01*
X81352112Y-67216676D01*
X81281890Y-67180274D01*
X81193136Y-67146214D01*
X81017582Y-67058923D01*
X80861606Y-66912979D01*
X80728383Y-66709442D01*
X80630145Y-66477153D01*
X81081757Y-66477153D01*
X81086073Y-66497730D01*
X81112801Y-66560753D01*
X81152098Y-66625223D01*
X81191171Y-66671857D01*
X81217230Y-66681371D01*
X81231094Y-66653642D01*
X81249012Y-66571846D01*
X81262499Y-66456951D01*
X81270227Y-66326235D01*
X81270862Y-66196977D01*
X81263073Y-66086456D01*
X81249841Y-65999371D01*
X81224828Y-65870448D01*
X81199092Y-65768999D01*
X81194316Y-65753804D01*
X81170536Y-65687302D01*
X81154175Y-65670576D01*
X81137950Y-65694786D01*
X81125251Y-65748993D01*
X81115942Y-65841578D01*
X81111285Y-65950993D01*
X81111645Y-66057599D01*
X81117386Y-66141757D01*
X81128874Y-66183829D01*
X81136946Y-66195506D01*
X81148249Y-66259309D01*
X81138421Y-66336472D01*
X81110392Y-66393693D01*
X81096441Y-66412895D01*
X81081757Y-66477153D01*
X80630145Y-66477153D01*
X80617983Y-66448396D01*
X80612337Y-66431230D01*
X80578839Y-66296433D01*
X80556020Y-66145911D01*
X80544546Y-65994891D01*
X80545085Y-65858605D01*
X80558301Y-65752283D01*
X80584861Y-65691155D01*
X80607081Y-65656632D01*
X80641082Y-65572975D01*
X80671151Y-65468157D01*
X80693992Y-65385365D01*
X80749470Y-65265871D01*
X80770017Y-65221616D01*
X80874460Y-65111937D01*
X81006585Y-65057225D01*
X81020021Y-65055041D01*
X81138059Y-65051799D01*
X81249407Y-65069785D01*
G37*
G36*
X84175564Y-68317352D02*
G01*
X84274814Y-68328924D01*
X84343994Y-68356716D01*
X84405862Y-68408185D01*
X84414442Y-68417103D01*
X84481824Y-68508406D01*
X84527287Y-68603972D01*
X84530796Y-68615183D01*
X84558538Y-68693136D01*
X84581074Y-68740947D01*
X84582260Y-68742663D01*
X84619001Y-68820155D01*
X84650186Y-68926269D01*
X84671671Y-69039365D01*
X84679312Y-69137799D01*
X84668964Y-69199931D01*
X84662734Y-69211207D01*
X84649492Y-69244709D01*
X84672670Y-69230548D01*
X84676593Y-69227090D01*
X84703552Y-69210454D01*
X84723565Y-69220818D01*
X84739909Y-69266862D01*
X84755863Y-69357267D01*
X84774704Y-69500711D01*
X84780080Y-69544995D01*
X84793509Y-69685952D01*
X84791802Y-69789914D01*
X84770955Y-69876159D01*
X84726959Y-69963961D01*
X84655804Y-70072601D01*
X84637413Y-70097583D01*
X84600694Y-70122953D01*
X84561952Y-70099362D01*
X84538150Y-70066782D01*
X84516830Y-69996961D01*
X84514056Y-69964945D01*
X84492688Y-69886530D01*
X84487926Y-69873873D01*
X84468125Y-69803264D01*
X84442586Y-69695672D01*
X84415619Y-69568862D01*
X84386600Y-69441626D01*
X84346964Y-69292275D01*
X84301456Y-69136697D01*
X84254290Y-68988162D01*
X84209687Y-68859943D01*
X84171865Y-68765312D01*
X84145041Y-68717540D01*
X84135825Y-68709881D01*
X84105278Y-68705820D01*
X84104656Y-68706470D01*
X84082194Y-68758238D01*
X84057256Y-68861995D01*
X84031040Y-69008104D01*
X84004755Y-69186927D01*
X83979600Y-69388825D01*
X83956782Y-69604165D01*
X83937503Y-69823305D01*
X83922967Y-70036609D01*
X83914377Y-70234440D01*
X83913120Y-70313965D01*
X83914783Y-70491819D01*
X83921034Y-70693218D01*
X83931036Y-70903898D01*
X83943954Y-71109600D01*
X83958949Y-71296059D01*
X83975184Y-71449017D01*
X83991823Y-71554211D01*
X83998147Y-71583759D01*
X84019372Y-71697318D01*
X84023799Y-71770181D01*
X84010793Y-71818316D01*
X83979714Y-71857698D01*
X83966814Y-71868514D01*
X83884086Y-71898447D01*
X83779739Y-71898408D01*
X83680918Y-71867507D01*
X83638426Y-71832211D01*
X83581917Y-71734496D01*
X83544069Y-71598383D01*
X83529799Y-71437858D01*
X83521450Y-71332510D01*
X83484912Y-71207040D01*
X83412851Y-71075397D01*
X83298269Y-70921993D01*
X83288073Y-70909222D01*
X83230020Y-70832274D01*
X83154213Y-70727582D01*
X83074330Y-70613961D01*
X83074161Y-70613717D01*
X82974104Y-70471284D01*
X82881165Y-70342947D01*
X82804519Y-70241159D01*
X82753341Y-70178371D01*
X82755225Y-70155580D01*
X82789191Y-70109627D01*
X82858959Y-70068255D01*
X82973713Y-70051925D01*
X83103959Y-70073732D01*
X83136986Y-70085904D01*
X83175406Y-70109171D01*
X83214695Y-70149204D01*
X83262224Y-70215334D01*
X83325358Y-70316897D01*
X83411469Y-70463225D01*
X83439618Y-70508912D01*
X83480602Y-70564584D01*
X83503102Y-70579926D01*
X83509837Y-70548273D01*
X83514204Y-70470758D01*
X83514552Y-70365917D01*
X83514626Y-70321311D01*
X83518679Y-70193811D01*
X83527081Y-70026069D01*
X83538826Y-69832370D01*
X83552908Y-69626999D01*
X83568322Y-69424238D01*
X83584063Y-69238374D01*
X83599125Y-69083690D01*
X83612501Y-68974473D01*
X83621898Y-68917148D01*
X83674115Y-68703399D01*
X83745554Y-68530541D01*
X83832315Y-68408609D01*
X83877056Y-68367121D01*
X83936024Y-68331586D01*
X84010440Y-68316883D01*
X84123444Y-68315618D01*
X84175564Y-68317352D01*
G37*
G36*
X89146029Y-71004779D02*
G01*
X89221562Y-71039351D01*
X89287103Y-71109550D01*
X89357538Y-71226958D01*
X89393359Y-71311103D01*
X89438354Y-71444647D01*
X89488295Y-71613221D01*
X89539663Y-71803754D01*
X89588939Y-72003177D01*
X89632602Y-72198421D01*
X89667132Y-72376416D01*
X89691783Y-72501074D01*
X89721900Y-72626906D01*
X89749628Y-72719477D01*
X89753259Y-72729795D01*
X89782906Y-72844710D01*
X89797513Y-72956358D01*
X89797674Y-72960058D01*
X89807234Y-73052194D01*
X89826790Y-73177272D01*
X89852312Y-73309334D01*
X89855108Y-73322559D01*
X89878462Y-73448440D01*
X89893875Y-73559297D01*
X89898134Y-73632474D01*
X89900688Y-73698008D01*
X89914514Y-73741399D01*
X89926622Y-73774798D01*
X89946350Y-73857701D01*
X89970381Y-73976712D01*
X89995919Y-74118856D01*
X90018096Y-74249211D01*
X90041461Y-74385852D01*
X90059903Y-74492961D01*
X90070710Y-74554723D01*
X90073588Y-74571654D01*
X90086131Y-74650948D01*
X90104807Y-74773046D01*
X90127603Y-74924731D01*
X90152514Y-75092786D01*
X90222110Y-75611917D01*
X90273944Y-76118945D01*
X90301375Y-76569483D01*
X90304383Y-76963818D01*
X90282949Y-77302236D01*
X90237054Y-77585025D01*
X90166680Y-77812470D01*
X90071807Y-77984857D01*
X89952417Y-78102474D01*
X89869791Y-78144426D01*
X89714392Y-78170065D01*
X89534396Y-78147220D01*
X89336028Y-78077665D01*
X89125517Y-77963170D01*
X88909088Y-77805509D01*
X88868922Y-77770569D01*
X88752428Y-77653755D01*
X88621464Y-77505022D01*
X88483045Y-77334108D01*
X88344179Y-77150751D01*
X88211881Y-76964690D01*
X88093161Y-76785662D01*
X88069846Y-76747112D01*
X88542413Y-76747112D01*
X88556302Y-76785109D01*
X88604750Y-76867042D01*
X88714442Y-77027459D01*
X88848820Y-77202916D01*
X88994750Y-77376585D01*
X89139095Y-77531642D01*
X89235828Y-77626248D01*
X89390232Y-77761543D01*
X89513715Y-77845759D01*
X89607705Y-77879785D01*
X89673629Y-77864510D01*
X89705658Y-77824051D01*
X89747473Y-77723708D01*
X89785287Y-77581555D01*
X89816668Y-77409219D01*
X89839179Y-77218328D01*
X89850386Y-77020510D01*
X89852172Y-76851379D01*
X89844816Y-76543586D01*
X89823794Y-76207834D01*
X89788498Y-75838856D01*
X89738318Y-75431385D01*
X89672646Y-74980154D01*
X89590872Y-74479897D01*
X89492387Y-73925346D01*
X89489192Y-73907847D01*
X89464534Y-73767744D01*
X89442640Y-73635516D01*
X89427920Y-73537692D01*
X89426899Y-73530158D01*
X89412655Y-73446819D01*
X89397824Y-73421950D01*
X89378115Y-73456244D01*
X89349238Y-73550394D01*
X89334216Y-73608554D01*
X89299864Y-73765182D01*
X89258391Y-73979760D01*
X89210210Y-74249932D01*
X89155736Y-74573343D01*
X89095380Y-74947637D01*
X89029559Y-75370458D01*
X89010260Y-75492337D01*
X88991764Y-75602293D01*
X88978335Y-75674860D01*
X88976469Y-75683927D01*
X88961938Y-75756499D01*
X88938983Y-75872719D01*
X88910363Y-76018576D01*
X88878837Y-76180059D01*
X88870299Y-76222897D01*
X88836317Y-76376773D01*
X88802402Y-76507726D01*
X88772077Y-76603027D01*
X88748862Y-76649947D01*
X88696889Y-76685376D01*
X88614739Y-76715708D01*
X88566746Y-76727411D01*
X88542413Y-76747112D01*
X88069846Y-76747112D01*
X87995029Y-76623406D01*
X87924500Y-76487660D01*
X87888582Y-76388161D01*
X87868410Y-76291320D01*
X87996356Y-76291320D01*
X88044187Y-76293739D01*
X88145200Y-76322349D01*
X88252047Y-76392011D01*
X88302586Y-76429177D01*
X88366250Y-76466794D01*
X88399154Y-76473339D01*
X88406970Y-76453618D01*
X88423655Y-76382413D01*
X88444147Y-76273306D01*
X88465658Y-76140251D01*
X88487683Y-75994478D01*
X88554969Y-75558967D01*
X88620182Y-75151412D01*
X88682633Y-74775537D01*
X88741629Y-74435066D01*
X88796481Y-74133723D01*
X88846496Y-73875230D01*
X88890986Y-73663313D01*
X88929258Y-73501694D01*
X88960622Y-73394099D01*
X88984385Y-73344250D01*
X89027962Y-73316031D01*
X89139619Y-73298115D01*
X89292404Y-73316530D01*
X89297690Y-73317167D01*
X89394230Y-73337276D01*
X89383170Y-73245584D01*
X89376162Y-73201452D01*
X89358166Y-73102092D01*
X89331896Y-72963216D01*
X89299649Y-72796430D01*
X89263719Y-72613348D01*
X89226403Y-72425578D01*
X89189996Y-72244729D01*
X89156792Y-72082412D01*
X89129088Y-71950234D01*
X89109179Y-71859809D01*
X89106949Y-71850216D01*
X89065074Y-71676295D01*
X89033182Y-71558165D01*
X89009811Y-71490901D01*
X88993502Y-71469575D01*
X88992283Y-71469877D01*
X88966591Y-71499934D01*
X88921563Y-71569558D01*
X88866128Y-71665045D01*
X88831935Y-71724348D01*
X88756131Y-71841028D01*
X88686795Y-71929371D01*
X88631366Y-71980509D01*
X88597283Y-71985572D01*
X88590422Y-71973691D01*
X88581837Y-71906134D01*
X88586158Y-71798279D01*
X88601184Y-71664482D01*
X88624713Y-71519100D01*
X88654544Y-71376489D01*
X88688477Y-71251007D01*
X88724309Y-71157011D01*
X88727517Y-71150617D01*
X88801178Y-71057089D01*
X88908636Y-71006534D01*
X89058835Y-70994610D01*
X89146029Y-71004779D01*
G37*
G36*
X78201841Y-58461287D02*
G01*
X78259444Y-58480470D01*
X78313620Y-58515964D01*
X78366487Y-58573617D01*
X78421471Y-58659562D01*
X78481997Y-58779935D01*
X78551492Y-58940870D01*
X78633382Y-59148502D01*
X78731093Y-59408965D01*
X78775089Y-59529492D01*
X78851781Y-59744665D01*
X78937201Y-59989278D01*
X79028924Y-60255994D01*
X79124529Y-60537476D01*
X79221593Y-60826390D01*
X79317694Y-61115398D01*
X79410409Y-61397164D01*
X79497317Y-61664351D01*
X79575994Y-61909624D01*
X79644018Y-62125646D01*
X79698967Y-62305081D01*
X79738418Y-62440591D01*
X79759949Y-62524842D01*
X79769926Y-62565265D01*
X79797399Y-62662885D01*
X79835618Y-62790695D01*
X79879546Y-62931561D01*
X79932367Y-63107295D01*
X79994408Y-63329706D01*
X80061743Y-63583301D01*
X80130661Y-63853282D01*
X80197457Y-64124850D01*
X80258418Y-64383207D01*
X80309841Y-64613551D01*
X80348013Y-64801086D01*
X80381772Y-64998014D01*
X80417557Y-65305106D01*
X80422486Y-65558947D01*
X80396432Y-65759965D01*
X80339269Y-65908590D01*
X80250870Y-66005250D01*
X80131107Y-66050371D01*
X79979855Y-66044384D01*
X79928837Y-66033308D01*
X79878860Y-66015134D01*
X79827630Y-65983529D01*
X79764737Y-65930645D01*
X79679774Y-65848641D01*
X79562332Y-65729669D01*
X79521808Y-65688007D01*
X79387980Y-65543956D01*
X79277899Y-65410822D01*
X79174261Y-65266546D01*
X79059758Y-65089068D01*
X79039783Y-65057146D01*
X78960379Y-64932018D01*
X78894246Y-64830570D01*
X78847805Y-64762511D01*
X78827473Y-64737555D01*
X78828437Y-64755303D01*
X78841500Y-64820945D01*
X78864617Y-64922324D01*
X78894416Y-65045991D01*
X78927525Y-65178497D01*
X78960572Y-65306395D01*
X78990186Y-65416235D01*
X79012997Y-65494571D01*
X79025631Y-65527952D01*
X79031607Y-65540907D01*
X79049534Y-65606621D01*
X79074509Y-65717385D01*
X79104562Y-65862643D01*
X79137731Y-66031838D01*
X79172047Y-66214413D01*
X79205546Y-66399812D01*
X79236261Y-66577476D01*
X79262226Y-66736850D01*
X79281475Y-66867377D01*
X79292041Y-66958498D01*
X79296990Y-67025924D01*
X79299823Y-67168201D01*
X79284782Y-67276367D01*
X79247800Y-67369736D01*
X79184810Y-67467620D01*
X79160449Y-67498320D01*
X79101205Y-67539308D01*
X79015768Y-67544785D01*
X78953467Y-67537404D01*
X78868709Y-67514878D01*
X78783081Y-67474591D01*
X78693025Y-67412675D01*
X78594981Y-67325259D01*
X78485390Y-67208475D01*
X78360695Y-67058453D01*
X78217336Y-66871325D01*
X78051755Y-66643220D01*
X77860393Y-66370271D01*
X77639692Y-66048607D01*
X77636373Y-66043735D01*
X77523292Y-65877946D01*
X77416290Y-65721478D01*
X77322566Y-65584826D01*
X77249315Y-65478483D01*
X77203735Y-65412944D01*
X77138001Y-65306074D01*
X77114257Y-65222420D01*
X77138774Y-65162194D01*
X77211775Y-65117089D01*
X77238685Y-65106863D01*
X77360915Y-65089427D01*
X77469500Y-65129312D01*
X77571993Y-65228862D01*
X77574414Y-65231967D01*
X77638762Y-65320807D01*
X77726591Y-65450431D01*
X77830084Y-65608882D01*
X77941426Y-65784204D01*
X78052804Y-65964443D01*
X78056300Y-65970171D01*
X78156787Y-66126605D01*
X78280147Y-66307005D01*
X78412619Y-66492122D01*
X78540442Y-66662707D01*
X78649851Y-66799511D01*
X78817261Y-66998230D01*
X78822726Y-66905045D01*
X78823090Y-66896638D01*
X78818072Y-66793835D01*
X78799914Y-66643392D01*
X78770620Y-66456454D01*
X78732193Y-66244168D01*
X78686637Y-66017679D01*
X78635955Y-65788133D01*
X78582150Y-65566675D01*
X78557487Y-65470033D01*
X78513755Y-65297298D01*
X78475075Y-65142840D01*
X78444927Y-65020588D01*
X78426787Y-64944470D01*
X78407499Y-64864085D01*
X78389099Y-64810754D01*
X78372636Y-64805064D01*
X78352850Y-64839554D01*
X78342543Y-64884441D01*
X78331625Y-64977886D01*
X78322711Y-65098153D01*
X78316884Y-65226434D01*
X78315223Y-65343919D01*
X78318810Y-65431801D01*
X78322085Y-65469500D01*
X78321630Y-65628621D01*
X78291205Y-65737146D01*
X78228814Y-65799223D01*
X78132462Y-65818994D01*
X78089232Y-65815049D01*
X78006952Y-65775366D01*
X77947398Y-65690763D01*
X77909978Y-65558463D01*
X77894096Y-65375693D01*
X77899159Y-65139677D01*
X77924575Y-64847639D01*
X77948996Y-64626430D01*
X77979095Y-64352583D01*
X78002982Y-64129273D01*
X78020856Y-63949897D01*
X78032919Y-63807854D01*
X78039374Y-63696544D01*
X78040419Y-63609364D01*
X78036257Y-63539712D01*
X78027087Y-63480989D01*
X78013111Y-63426592D01*
X77994530Y-63369918D01*
X77971545Y-63304370D01*
X77940049Y-63211907D01*
X77912664Y-63118029D01*
X77905574Y-63057521D01*
X77917734Y-63015864D01*
X77948098Y-62978540D01*
X78012265Y-62929805D01*
X78088220Y-62899364D01*
X78097273Y-62897879D01*
X78150401Y-62876681D01*
X78166800Y-62827018D01*
X78173253Y-62777740D01*
X78196920Y-62668258D01*
X78231312Y-62544916D01*
X78270547Y-62426352D01*
X78308744Y-62331201D01*
X78340021Y-62278105D01*
X78344110Y-62274334D01*
X78415335Y-62244677D01*
X78513716Y-62237758D01*
X78611544Y-62252719D01*
X78681111Y-62288698D01*
X78691355Y-62308619D01*
X78693541Y-62378772D01*
X78674444Y-62497206D01*
X78633466Y-62668685D01*
X78583961Y-62867297D01*
X78549539Y-63031852D01*
X78532810Y-63157499D01*
X78532452Y-63254412D01*
X78547141Y-63332772D01*
X78552933Y-63349315D01*
X78584765Y-63425239D01*
X78636457Y-63539377D01*
X78702309Y-63679314D01*
X78776622Y-63832635D01*
X78784928Y-63849498D01*
X78948539Y-64170959D01*
X79114581Y-64478159D01*
X79277924Y-64762448D01*
X79433443Y-65015171D01*
X79576007Y-65227678D01*
X79700490Y-65391317D01*
X79764031Y-65468893D01*
X79828565Y-65550846D01*
X79868042Y-65604847D01*
X79869420Y-65606945D01*
X79914252Y-65653298D01*
X79946811Y-65639962D01*
X79966324Y-65568165D01*
X79972020Y-65439138D01*
X79966980Y-65357313D01*
X79947693Y-65203569D01*
X79915981Y-65007630D01*
X79873959Y-64779584D01*
X79823745Y-64529526D01*
X79767454Y-64267547D01*
X79707205Y-64003739D01*
X79645111Y-63748194D01*
X79583293Y-63511005D01*
X79523864Y-63302263D01*
X79494417Y-63202814D01*
X79465277Y-63100922D01*
X79447528Y-63034631D01*
X79439855Y-63004118D01*
X79404376Y-62875750D01*
X79352253Y-62698600D01*
X79285904Y-62480161D01*
X79207752Y-62227924D01*
X79120219Y-61949381D01*
X79025725Y-61652025D01*
X78926692Y-61343347D01*
X78825543Y-61030839D01*
X78724697Y-60721992D01*
X78626576Y-60424299D01*
X78533603Y-60145253D01*
X78448197Y-59892343D01*
X78372781Y-59673064D01*
X78309776Y-59494905D01*
X78261604Y-59365361D01*
X78234944Y-59299752D01*
X78177720Y-59174453D01*
X78123288Y-59072990D01*
X78080549Y-59012700D01*
X78042986Y-58961452D01*
X77997651Y-58870223D01*
X77957469Y-58763386D01*
X77928130Y-58658689D01*
X77915325Y-58573883D01*
X77924745Y-58526718D01*
X77977172Y-58490136D01*
X78086189Y-58457735D01*
X78201841Y-58461287D01*
G37*
G36*
X138202080Y-122882057D02*
G01*
X138286252Y-122899732D01*
X138341827Y-122928045D01*
X138362515Y-122961749D01*
X138381038Y-123040422D01*
X138380621Y-123123379D01*
X138359139Y-123179716D01*
X138350857Y-123192589D01*
X138326172Y-123259978D01*
X138296592Y-123367678D01*
X138265255Y-123500969D01*
X138235300Y-123645137D01*
X138209864Y-123785466D01*
X138192088Y-123907239D01*
X138185108Y-123995740D01*
X138183044Y-124063663D01*
X138168148Y-124142692D01*
X138129310Y-124192275D01*
X138055384Y-124232773D01*
X138019640Y-124242869D01*
X137922850Y-124235694D01*
X137828579Y-124194580D01*
X137765452Y-124129705D01*
X137755780Y-124098908D01*
X137749249Y-124000310D01*
X137757733Y-123859386D01*
X137780315Y-123687626D01*
X137816075Y-123496527D01*
X137857714Y-123316957D01*
X137910837Y-123138629D01*
X137967297Y-123011770D01*
X138030690Y-122930500D01*
X138104615Y-122888944D01*
X138192667Y-122881225D01*
X138202080Y-122882057D01*
G37*
G36*
X129735141Y-116041346D02*
G01*
X129800004Y-116097573D01*
X129841272Y-116208112D01*
X129859316Y-116374130D01*
X129854517Y-116596794D01*
X129843816Y-116792857D01*
X129835274Y-117021921D01*
X129830413Y-117249920D01*
X129829194Y-117466710D01*
X129831580Y-117662145D01*
X129837531Y-117826084D01*
X129847008Y-117948378D01*
X129859971Y-118018887D01*
X129880482Y-118097807D01*
X129886583Y-118208261D01*
X129867075Y-118298459D01*
X129824018Y-118349436D01*
X129814070Y-118353695D01*
X129706104Y-118371266D01*
X129592469Y-118351989D01*
X129503800Y-118300541D01*
X129497740Y-118294092D01*
X129447954Y-118213344D01*
X129416221Y-118116256D01*
X129416040Y-118115228D01*
X129405598Y-118014063D01*
X129399373Y-117864097D01*
X129397162Y-117678217D01*
X129398764Y-117469305D01*
X129403972Y-117250250D01*
X129412585Y-117033934D01*
X129424398Y-116833243D01*
X129439208Y-116661062D01*
X129446384Y-116591467D01*
X129455376Y-116498326D01*
X129459977Y-116442357D01*
X129464711Y-116393128D01*
X129495220Y-116263038D01*
X129545355Y-116149784D01*
X129607276Y-116068390D01*
X129673144Y-116033879D01*
X129735141Y-116041346D01*
G37*
G36*
X137747170Y-124513417D02*
G01*
X137842067Y-124565357D01*
X137853511Y-124574604D01*
X137918058Y-124626117D01*
X137958573Y-124657425D01*
X137967658Y-124665445D01*
X137994130Y-124729913D01*
X137987819Y-124813468D01*
X137949767Y-124888692D01*
X137906606Y-124938986D01*
X137878518Y-124972561D01*
X137875760Y-124981157D01*
X137876090Y-125039494D01*
X137885862Y-125136125D01*
X137902607Y-125254692D01*
X137923857Y-125378842D01*
X137947140Y-125492222D01*
X137969991Y-125578477D01*
X137987867Y-125637799D01*
X138020230Y-125812651D01*
X138010057Y-125947572D01*
X137957795Y-126040420D01*
X137863890Y-126089044D01*
X137845587Y-126091406D01*
X137814772Y-126079083D01*
X137781670Y-126034046D01*
X137735436Y-125944047D01*
X137730790Y-125934356D01*
X137665233Y-125778450D01*
X137603298Y-125598370D01*
X137547088Y-125404457D01*
X137498704Y-125207053D01*
X137460253Y-125016501D01*
X137433835Y-124843141D01*
X137421553Y-124697316D01*
X137425510Y-124589369D01*
X137447812Y-124529639D01*
X137459700Y-124523811D01*
X137520084Y-124511310D01*
X137609245Y-124502126D01*
X137628319Y-124501142D01*
X137747170Y-124513417D01*
G37*
G36*
X127556837Y-112278690D02*
G01*
X127614978Y-112294818D01*
X127699764Y-112312882D01*
X127720302Y-112317250D01*
X127816184Y-112356872D01*
X127864467Y-112414755D01*
X127857970Y-112483168D01*
X127789348Y-112643485D01*
X127716940Y-112930944D01*
X127689146Y-113256615D01*
X127705942Y-113617528D01*
X127767304Y-114010714D01*
X127873209Y-114433204D01*
X127884727Y-114474436D01*
X127913513Y-114635545D01*
X127902053Y-114752168D01*
X127849554Y-114827197D01*
X127755223Y-114863520D01*
X127736972Y-114865895D01*
X127695737Y-114860713D01*
X127661100Y-114826634D01*
X127616461Y-114750090D01*
X127580100Y-114676479D01*
X127502538Y-114478982D01*
X127430888Y-114242594D01*
X127370227Y-113983136D01*
X127344714Y-113859731D01*
X127324959Y-113785029D01*
X127304665Y-113747772D01*
X127277451Y-113736257D01*
X127236933Y-113738783D01*
X127171162Y-113739341D01*
X127076961Y-113723176D01*
X127071781Y-113721487D01*
X127014178Y-113696816D01*
X126976675Y-113662171D01*
X126959556Y-113609533D01*
X126963108Y-113530891D01*
X126987618Y-113418228D01*
X127033369Y-113263530D01*
X127100648Y-113058782D01*
X127147865Y-112918627D01*
X127202422Y-112757474D01*
X127248682Y-112621699D01*
X127282844Y-112522447D01*
X127301109Y-112470866D01*
X127315119Y-112444039D01*
X127367974Y-112381381D01*
X127437053Y-112322698D01*
X127503767Y-112282597D01*
X127549529Y-112275680D01*
X127556837Y-112278690D01*
G37*
G36*
X137179050Y-121454735D02*
G01*
X137267737Y-121503077D01*
X137279077Y-121515882D01*
X137330426Y-121593301D01*
X137395451Y-121712379D01*
X137467563Y-121860488D01*
X137540170Y-122025001D01*
X137549880Y-122046920D01*
X137576512Y-122098308D01*
X137608837Y-122161009D01*
X137653342Y-122274821D01*
X137695453Y-122407227D01*
X137729811Y-122539262D01*
X137751062Y-122651960D01*
X137753853Y-122726352D01*
X137734686Y-122799453D01*
X137668353Y-122904624D01*
X137569730Y-122961310D01*
X137446730Y-122966153D01*
X137307269Y-122915797D01*
X137179534Y-122846163D01*
X137232308Y-122946897D01*
X137233539Y-122949241D01*
X137284043Y-123040856D01*
X137331739Y-123120792D01*
X137355797Y-123189777D01*
X137345973Y-123295816D01*
X137322223Y-123359308D01*
X137288292Y-123396796D01*
X137226325Y-123415849D01*
X137207960Y-123419060D01*
X137085076Y-123413922D01*
X136972729Y-123369970D01*
X136894726Y-123295824D01*
X136851370Y-123209459D01*
X136803640Y-123084022D01*
X136759417Y-122941096D01*
X136722490Y-122795741D01*
X136696649Y-122663020D01*
X136685686Y-122557994D01*
X136693388Y-122495725D01*
X136694894Y-122492834D01*
X136771543Y-122411437D01*
X136890546Y-122363932D01*
X137039680Y-122355281D01*
X137201085Y-122367807D01*
X137091987Y-122101609D01*
X137072714Y-122055183D01*
X137014295Y-121920352D01*
X136958972Y-121800089D01*
X136916559Y-121715968D01*
X136874333Y-121633169D01*
X136849404Y-121546571D01*
X136871598Y-121492098D01*
X136945712Y-121461693D01*
X137076544Y-121447301D01*
X137179050Y-121454735D01*
G37*
G36*
X140028602Y-125027814D02*
G01*
X140132564Y-125038903D01*
X140249010Y-125056993D01*
X140359412Y-125078563D01*
X140445245Y-125100091D01*
X140487983Y-125118060D01*
X140494282Y-125140207D01*
X140502552Y-125214204D01*
X140509540Y-125326169D01*
X140514192Y-125462252D01*
X140521944Y-125651382D01*
X140536216Y-125807031D01*
X140555898Y-125916299D01*
X140580042Y-125973990D01*
X140607699Y-125974905D01*
X140608434Y-125974113D01*
X140628501Y-125928601D01*
X140653318Y-125840982D01*
X140677690Y-125729478D01*
X140681446Y-125710338D01*
X140722502Y-125559901D01*
X140778437Y-125460869D01*
X140856920Y-125403927D01*
X140965618Y-125379763D01*
X141007941Y-125377721D01*
X141109216Y-125395448D01*
X141165293Y-125451866D01*
X141177840Y-125549825D01*
X141148527Y-125692179D01*
X141135699Y-125738347D01*
X141103320Y-125874431D01*
X141066318Y-126050176D01*
X141027599Y-126250822D01*
X140990065Y-126461603D01*
X140956621Y-126667754D01*
X140939469Y-126767060D01*
X140911282Y-126894332D01*
X140882401Y-126990985D01*
X140856952Y-127041546D01*
X140841287Y-127055070D01*
X140747235Y-127095294D01*
X140631944Y-127102483D01*
X140522412Y-127074015D01*
X140478472Y-127047079D01*
X140441096Y-127002864D01*
X140406785Y-126928776D01*
X140366593Y-126809637D01*
X140296517Y-126586672D01*
X140154199Y-126535368D01*
X140109343Y-126518058D01*
X140024653Y-126478865D01*
X139974053Y-126446233D01*
X139961578Y-126428628D01*
X139927267Y-126354229D01*
X139885491Y-126240819D01*
X139840796Y-126102837D01*
X139797731Y-125954727D01*
X139760840Y-125810930D01*
X139734671Y-125685888D01*
X139723742Y-125619333D01*
X139701991Y-125452750D01*
X139690294Y-125305140D01*
X139689497Y-125190424D01*
X139700445Y-125122521D01*
X139705957Y-125112162D01*
X139768247Y-125063646D01*
X139873375Y-125033518D01*
X140006219Y-125026524D01*
X140028602Y-125027814D01*
G37*
G36*
X135858399Y-120147994D02*
G01*
X135980180Y-120175824D01*
X136059299Y-120208850D01*
X136187489Y-120297186D01*
X136305593Y-120430212D01*
X136422112Y-120616402D01*
X136547885Y-120863520D01*
X136646655Y-121108238D01*
X136698785Y-121314779D01*
X136704104Y-121482435D01*
X136662440Y-121610500D01*
X136642518Y-121639301D01*
X136612695Y-121659281D01*
X136579201Y-121644798D01*
X136536717Y-121590271D01*
X136479924Y-121490117D01*
X136403503Y-121338756D01*
X136389250Y-121309922D01*
X136263211Y-121066421D01*
X136145702Y-120859711D01*
X136039582Y-120693966D01*
X135947714Y-120573364D01*
X135872957Y-120502079D01*
X135818173Y-120484290D01*
X135791989Y-120512311D01*
X135761313Y-120580512D01*
X135736601Y-120665250D01*
X135726160Y-120743161D01*
X135731887Y-120776102D01*
X135766030Y-120805253D01*
X135845443Y-120829714D01*
X135858896Y-120833282D01*
X135956799Y-120873737D01*
X136033273Y-120926672D01*
X136035820Y-120929247D01*
X136090830Y-120998213D01*
X136144056Y-121084226D01*
X136183296Y-121165363D01*
X136196349Y-121219701D01*
X136196678Y-121236940D01*
X136203596Y-121303767D01*
X136216514Y-121396905D01*
X136224341Y-121449581D01*
X136235339Y-121529955D01*
X136239602Y-121571184D01*
X136239984Y-121576057D01*
X136250725Y-121627247D01*
X136271663Y-121706187D01*
X136285504Y-121762690D01*
X136303264Y-121909879D01*
X136296007Y-122043662D01*
X136264112Y-122142200D01*
X136226770Y-122185392D01*
X136167846Y-122206002D01*
X136068218Y-122208858D01*
X135906867Y-122184275D01*
X135733212Y-122102875D01*
X135584660Y-121966335D01*
X135462777Y-121776168D01*
X135369130Y-121533889D01*
X135347582Y-121458517D01*
X135296215Y-121240033D01*
X135273232Y-121050154D01*
X135277207Y-120869305D01*
X135306711Y-120677915D01*
X135314057Y-120641474D01*
X135335190Y-120526453D01*
X135348229Y-120438742D01*
X135350593Y-120394982D01*
X135354265Y-120377909D01*
X135389414Y-120323627D01*
X135450536Y-120254989D01*
X135517962Y-120194704D01*
X135597166Y-120153888D01*
X135699829Y-120138194D01*
X135728934Y-120137299D01*
X135858399Y-120147994D01*
G37*
G36*
X130500874Y-114854400D02*
G01*
X130542829Y-114865889D01*
X130543929Y-114867062D01*
X130571635Y-114911929D01*
X130614931Y-114996375D01*
X130666113Y-115103808D01*
X130717475Y-115217630D01*
X130761312Y-115321249D01*
X130789921Y-115398068D01*
X130791162Y-115401893D01*
X130821728Y-115481570D01*
X130869527Y-115592392D01*
X130924772Y-115711605D01*
X130928701Y-115719789D01*
X130984499Y-115838728D01*
X131033236Y-115947099D01*
X131064757Y-116022354D01*
X131105758Y-116131297D01*
X131159831Y-116279069D01*
X131209061Y-116417796D01*
X131249197Y-116535229D01*
X131275985Y-116619114D01*
X131285170Y-116657203D01*
X131285678Y-116665988D01*
X131297932Y-116722594D01*
X131321598Y-116805416D01*
X131346588Y-116898105D01*
X131369211Y-117080137D01*
X131350929Y-117227992D01*
X131296322Y-117337273D01*
X131209958Y-117403585D01*
X131096415Y-117422534D01*
X130960267Y-117389725D01*
X130806086Y-117300762D01*
X130788419Y-117288421D01*
X130725980Y-117255029D01*
X130690243Y-117252130D01*
X130686107Y-117257072D01*
X130688351Y-117286917D01*
X130704999Y-117300537D01*
X130750784Y-117375979D01*
X130749245Y-117459914D01*
X130707538Y-117537389D01*
X130632819Y-117593452D01*
X130532242Y-117613150D01*
X130486264Y-117607333D01*
X130398604Y-117562703D01*
X130326517Y-117470452D01*
X130266977Y-117325891D01*
X130216960Y-117124333D01*
X130200930Y-117042613D01*
X130172841Y-116883302D01*
X130159621Y-116769351D01*
X130161080Y-116690297D01*
X130177025Y-116635683D01*
X130207265Y-116595047D01*
X130220766Y-116583100D01*
X130316073Y-116534022D01*
X130439418Y-116506097D01*
X130563702Y-116506089D01*
X130600538Y-116514097D01*
X130658336Y-116549586D01*
X130715929Y-116625834D01*
X130760532Y-116693266D01*
X130808116Y-116752000D01*
X130829776Y-116755875D01*
X130825750Y-116705685D01*
X130796279Y-116602223D01*
X130741600Y-116446286D01*
X130661953Y-116238667D01*
X130557577Y-115980159D01*
X130428711Y-115671559D01*
X130394793Y-115591114D01*
X130319635Y-115410864D01*
X130254459Y-115251814D01*
X130202873Y-115122922D01*
X130168483Y-115033141D01*
X130154894Y-114991429D01*
X130154848Y-114991081D01*
X130173061Y-114921969D01*
X130247184Y-114875379D01*
X130374763Y-114852858D01*
X130420348Y-114851048D01*
X130500874Y-114854400D01*
G37*
G36*
X139165443Y-121243891D02*
G01*
X139276116Y-121270805D01*
X139375328Y-121315033D01*
X139453939Y-121371825D01*
X139525961Y-121455378D01*
X139607354Y-121580623D01*
X139627949Y-121614944D01*
X139700986Y-121746661D01*
X139748809Y-121860747D01*
X139780807Y-121983688D01*
X139806375Y-122141978D01*
X139815215Y-122222546D01*
X139825988Y-122382249D01*
X139833409Y-122572930D01*
X139837364Y-122779109D01*
X139837735Y-122985307D01*
X139834407Y-123176047D01*
X139827264Y-123335849D01*
X139816189Y-123449235D01*
X139800562Y-123544833D01*
X139765280Y-123740627D01*
X139721446Y-123967683D01*
X139672763Y-124207899D01*
X139622930Y-124443173D01*
X139575649Y-124655402D01*
X139534620Y-124826485D01*
X139508593Y-124935753D01*
X139478699Y-125082081D01*
X139458792Y-125206291D01*
X139452219Y-125289570D01*
X139444395Y-125381880D01*
X139398888Y-125473046D01*
X139312194Y-125519302D01*
X139183369Y-125521049D01*
X139011465Y-125478696D01*
X138916696Y-125437178D01*
X138760712Y-125321200D01*
X138625905Y-125159200D01*
X138519653Y-124960921D01*
X138484875Y-124849737D01*
X138936578Y-124849737D01*
X138947809Y-124893675D01*
X138966778Y-124905331D01*
X139012305Y-124894969D01*
X139029571Y-124870414D01*
X139033374Y-124824034D01*
X139001441Y-124802300D01*
X138967333Y-124811332D01*
X138936578Y-124849737D01*
X138484875Y-124849737D01*
X138449332Y-124736106D01*
X138442791Y-124691992D01*
X138449231Y-124578227D01*
X138484644Y-124482732D01*
X138542769Y-124426275D01*
X138548659Y-124421668D01*
X138558539Y-124402539D01*
X138574980Y-124370709D01*
X138603964Y-124278640D01*
X138630332Y-124161424D01*
X138657785Y-124037703D01*
X138708179Y-123900376D01*
X138775900Y-123812205D01*
X138867558Y-123765680D01*
X138989765Y-123753295D01*
X139023307Y-123754511D01*
X139131092Y-123775192D01*
X139205618Y-123826135D01*
X139223467Y-123844196D01*
X139266934Y-123872635D01*
X139291897Y-123852481D01*
X139291992Y-123852268D01*
X139323185Y-123748854D01*
X139350245Y-123595442D01*
X139372595Y-123403927D01*
X139389662Y-123186203D01*
X139400870Y-122954162D01*
X139405644Y-122719699D01*
X139403409Y-122494708D01*
X139393590Y-122291081D01*
X139375613Y-122120715D01*
X139373774Y-122108511D01*
X139322371Y-121858331D01*
X139253046Y-121658173D01*
X139167363Y-121510761D01*
X139066888Y-121418819D01*
X138953183Y-121385073D01*
X138936931Y-121384492D01*
X138864821Y-121376227D01*
X138841066Y-121353536D01*
X138853928Y-121307214D01*
X138872722Y-121284163D01*
X138944976Y-121252187D01*
X139048806Y-121238223D01*
X139165443Y-121243891D01*
G37*
G36*
X125957310Y-110230003D02*
G01*
X126006068Y-110247518D01*
X126112375Y-110312511D01*
X126197022Y-110413440D01*
X126266054Y-110558966D01*
X126325515Y-110757756D01*
X126332405Y-110785115D01*
X126367714Y-110907137D01*
X126400663Y-110978737D01*
X126437091Y-111009197D01*
X126482839Y-111007802D01*
X126497205Y-111005713D01*
X126569137Y-111010284D01*
X126661034Y-111028526D01*
X126715547Y-111044940D01*
X126797949Y-111090249D01*
X126867439Y-111169770D01*
X126926477Y-111274607D01*
X126989602Y-111431533D01*
X127046634Y-111615421D01*
X127093596Y-111809613D01*
X127126510Y-111997453D01*
X127141400Y-112162282D01*
X127134288Y-112287446D01*
X127122144Y-112336807D01*
X127080214Y-112431284D01*
X127026770Y-112486559D01*
X126970823Y-112491392D01*
X126963937Y-112485063D01*
X126933620Y-112431865D01*
X126890300Y-112334857D01*
X126838704Y-112205100D01*
X126783565Y-112053650D01*
X126749697Y-111956878D01*
X126682755Y-111768603D01*
X126631220Y-111629644D01*
X126592265Y-111533273D01*
X126563063Y-111472764D01*
X126540794Y-111441391D01*
X126522628Y-111432428D01*
X126521091Y-111432559D01*
X126498118Y-111465583D01*
X126477483Y-111549858D01*
X126461014Y-111675267D01*
X126450537Y-111831697D01*
X126444081Y-111919976D01*
X126424105Y-112061517D01*
X126395560Y-112193533D01*
X126362473Y-112298557D01*
X126328873Y-112359122D01*
X126323740Y-112363912D01*
X126244446Y-112400463D01*
X126146138Y-112406006D01*
X126061916Y-112378175D01*
X126060015Y-112376894D01*
X125989793Y-112340492D01*
X125901039Y-112306432D01*
X125725485Y-112219141D01*
X125569509Y-112073197D01*
X125436286Y-111869660D01*
X125338048Y-111637371D01*
X125789660Y-111637371D01*
X125793976Y-111657948D01*
X125820704Y-111720971D01*
X125860001Y-111785441D01*
X125899074Y-111832075D01*
X125925133Y-111841589D01*
X125938997Y-111813860D01*
X125956915Y-111732064D01*
X125970402Y-111617169D01*
X125978130Y-111486453D01*
X125978765Y-111357195D01*
X125970976Y-111246674D01*
X125957744Y-111159589D01*
X125932731Y-111030666D01*
X125906995Y-110929217D01*
X125902219Y-110914022D01*
X125878439Y-110847520D01*
X125862078Y-110830794D01*
X125845853Y-110855004D01*
X125833154Y-110909211D01*
X125823845Y-111001796D01*
X125819188Y-111111211D01*
X125819548Y-111217817D01*
X125825289Y-111301975D01*
X125836777Y-111344047D01*
X125844849Y-111355724D01*
X125856152Y-111419527D01*
X125846324Y-111496690D01*
X125818295Y-111553911D01*
X125804344Y-111573113D01*
X125789660Y-111637371D01*
X125338048Y-111637371D01*
X125325886Y-111608614D01*
X125320240Y-111591448D01*
X125286742Y-111456651D01*
X125263923Y-111306129D01*
X125252449Y-111155109D01*
X125252988Y-111018823D01*
X125266204Y-110912501D01*
X125292764Y-110851373D01*
X125314984Y-110816850D01*
X125348985Y-110733193D01*
X125379054Y-110628375D01*
X125401895Y-110545583D01*
X125457373Y-110426089D01*
X125477920Y-110381834D01*
X125582363Y-110272155D01*
X125714488Y-110217443D01*
X125727924Y-110215259D01*
X125845962Y-110212017D01*
X125957310Y-110230003D01*
G37*
G36*
X128883467Y-113477570D02*
G01*
X128982717Y-113489142D01*
X129051897Y-113516934D01*
X129113765Y-113568403D01*
X129122345Y-113577321D01*
X129189727Y-113668624D01*
X129235190Y-113764190D01*
X129238699Y-113775401D01*
X129266441Y-113853354D01*
X129288977Y-113901165D01*
X129290163Y-113902881D01*
X129326904Y-113980373D01*
X129358089Y-114086487D01*
X129379574Y-114199583D01*
X129387215Y-114298017D01*
X129376867Y-114360149D01*
X129370637Y-114371425D01*
X129357395Y-114404927D01*
X129380573Y-114390766D01*
X129384496Y-114387308D01*
X129411455Y-114370672D01*
X129431468Y-114381036D01*
X129447812Y-114427080D01*
X129463766Y-114517485D01*
X129482607Y-114660929D01*
X129487983Y-114705213D01*
X129501412Y-114846170D01*
X129499705Y-114950132D01*
X129478858Y-115036377D01*
X129434862Y-115124179D01*
X129363707Y-115232819D01*
X129345316Y-115257801D01*
X129308597Y-115283171D01*
X129269855Y-115259580D01*
X129246053Y-115227000D01*
X129224733Y-115157179D01*
X129221959Y-115125163D01*
X129200591Y-115046748D01*
X129195829Y-115034091D01*
X129176028Y-114963482D01*
X129150489Y-114855890D01*
X129123522Y-114729080D01*
X129094503Y-114601844D01*
X129054867Y-114452493D01*
X129009359Y-114296915D01*
X128962193Y-114148380D01*
X128917590Y-114020161D01*
X128879768Y-113925530D01*
X128852944Y-113877758D01*
X128843728Y-113870099D01*
X128813181Y-113866038D01*
X128812559Y-113866688D01*
X128790097Y-113918456D01*
X128765159Y-114022213D01*
X128738943Y-114168322D01*
X128712658Y-114347145D01*
X128687503Y-114549043D01*
X128664685Y-114764383D01*
X128645406Y-114983523D01*
X128630870Y-115196827D01*
X128622280Y-115394658D01*
X128621023Y-115474183D01*
X128622686Y-115652037D01*
X128628937Y-115853436D01*
X128638939Y-116064116D01*
X128651857Y-116269818D01*
X128666852Y-116456277D01*
X128683087Y-116609235D01*
X128699726Y-116714429D01*
X128706050Y-116743977D01*
X128727275Y-116857536D01*
X128731702Y-116930399D01*
X128718696Y-116978534D01*
X128687617Y-117017916D01*
X128674717Y-117028732D01*
X128591989Y-117058665D01*
X128487642Y-117058626D01*
X128388821Y-117027725D01*
X128346329Y-116992429D01*
X128289820Y-116894714D01*
X128251972Y-116758601D01*
X128237702Y-116598076D01*
X128229353Y-116492728D01*
X128192815Y-116367258D01*
X128120754Y-116235615D01*
X128006172Y-116082211D01*
X127995976Y-116069440D01*
X127937923Y-115992492D01*
X127862116Y-115887800D01*
X127782233Y-115774179D01*
X127782064Y-115773935D01*
X127682007Y-115631502D01*
X127589068Y-115503165D01*
X127512422Y-115401377D01*
X127461244Y-115338589D01*
X127463128Y-115315798D01*
X127497094Y-115269845D01*
X127566862Y-115228473D01*
X127681616Y-115212143D01*
X127811862Y-115233950D01*
X127844889Y-115246122D01*
X127883309Y-115269389D01*
X127922598Y-115309422D01*
X127970127Y-115375552D01*
X128033261Y-115477115D01*
X128119372Y-115623443D01*
X128147521Y-115669130D01*
X128188505Y-115724802D01*
X128211005Y-115740144D01*
X128217740Y-115708491D01*
X128222107Y-115630976D01*
X128222455Y-115526135D01*
X128222529Y-115481529D01*
X128226582Y-115354029D01*
X128234984Y-115186287D01*
X128246729Y-114992588D01*
X128260811Y-114787217D01*
X128276225Y-114584456D01*
X128291966Y-114398592D01*
X128307028Y-114243908D01*
X128320404Y-114134691D01*
X128329801Y-114077366D01*
X128382018Y-113863617D01*
X128453457Y-113690759D01*
X128540218Y-113568827D01*
X128584959Y-113527339D01*
X128643927Y-113491804D01*
X128718343Y-113477101D01*
X128831347Y-113475836D01*
X128883467Y-113477570D01*
G37*
G36*
X133853932Y-116164997D02*
G01*
X133929465Y-116199569D01*
X133995006Y-116269768D01*
X134065441Y-116387176D01*
X134101262Y-116471321D01*
X134146257Y-116604865D01*
X134196198Y-116773439D01*
X134247566Y-116963972D01*
X134296842Y-117163395D01*
X134340505Y-117358639D01*
X134375035Y-117536634D01*
X134399686Y-117661292D01*
X134429803Y-117787124D01*
X134457531Y-117879695D01*
X134461162Y-117890013D01*
X134490809Y-118004928D01*
X134505416Y-118116576D01*
X134505577Y-118120276D01*
X134515137Y-118212412D01*
X134534693Y-118337490D01*
X134560215Y-118469552D01*
X134563011Y-118482777D01*
X134586365Y-118608658D01*
X134601778Y-118719515D01*
X134606037Y-118792692D01*
X134608591Y-118858226D01*
X134622417Y-118901617D01*
X134634525Y-118935016D01*
X134654253Y-119017919D01*
X134678284Y-119136930D01*
X134703822Y-119279074D01*
X134725999Y-119409429D01*
X134749364Y-119546070D01*
X134767806Y-119653179D01*
X134778613Y-119714941D01*
X134781491Y-119731872D01*
X134794034Y-119811166D01*
X134812710Y-119933264D01*
X134835506Y-120084949D01*
X134860417Y-120253004D01*
X134930013Y-120772135D01*
X134981847Y-121279163D01*
X135009278Y-121729701D01*
X135012286Y-122124036D01*
X134990852Y-122462454D01*
X134944957Y-122745243D01*
X134874583Y-122972688D01*
X134779710Y-123145075D01*
X134660320Y-123262692D01*
X134577694Y-123304644D01*
X134422295Y-123330283D01*
X134242299Y-123307438D01*
X134043931Y-123237883D01*
X133833420Y-123123388D01*
X133616991Y-122965727D01*
X133576825Y-122930787D01*
X133460331Y-122813973D01*
X133329367Y-122665240D01*
X133190948Y-122494326D01*
X133052082Y-122310969D01*
X132919784Y-122124908D01*
X132801064Y-121945880D01*
X132777749Y-121907330D01*
X133250316Y-121907330D01*
X133264205Y-121945327D01*
X133312653Y-122027260D01*
X133422345Y-122187677D01*
X133556723Y-122363134D01*
X133702653Y-122536803D01*
X133846998Y-122691860D01*
X133943731Y-122786466D01*
X134098135Y-122921761D01*
X134221618Y-123005977D01*
X134315608Y-123040003D01*
X134381532Y-123024728D01*
X134413561Y-122984269D01*
X134455376Y-122883926D01*
X134493190Y-122741773D01*
X134524571Y-122569437D01*
X134547082Y-122378546D01*
X134558289Y-122180728D01*
X134560075Y-122011597D01*
X134552719Y-121703804D01*
X134531697Y-121368052D01*
X134496401Y-120999074D01*
X134446221Y-120591603D01*
X134380549Y-120140372D01*
X134298775Y-119640115D01*
X134200290Y-119085564D01*
X134197095Y-119068065D01*
X134172437Y-118927962D01*
X134150543Y-118795734D01*
X134135823Y-118697910D01*
X134134802Y-118690376D01*
X134120558Y-118607037D01*
X134105727Y-118582168D01*
X134086018Y-118616462D01*
X134057141Y-118710612D01*
X134042119Y-118768772D01*
X134007767Y-118925400D01*
X133966294Y-119139978D01*
X133918113Y-119410150D01*
X133863639Y-119733561D01*
X133803283Y-120107855D01*
X133737462Y-120530676D01*
X133718163Y-120652555D01*
X133699667Y-120762511D01*
X133686238Y-120835078D01*
X133684372Y-120844145D01*
X133669841Y-120916717D01*
X133646886Y-121032937D01*
X133618266Y-121178794D01*
X133586740Y-121340277D01*
X133578202Y-121383115D01*
X133544220Y-121536991D01*
X133510305Y-121667944D01*
X133479980Y-121763245D01*
X133456765Y-121810165D01*
X133404792Y-121845594D01*
X133322642Y-121875926D01*
X133274649Y-121887629D01*
X133250316Y-121907330D01*
X132777749Y-121907330D01*
X132702932Y-121783624D01*
X132632403Y-121647878D01*
X132596485Y-121548379D01*
X132576313Y-121451538D01*
X132704259Y-121451538D01*
X132752090Y-121453957D01*
X132853103Y-121482567D01*
X132959950Y-121552229D01*
X133010489Y-121589395D01*
X133074153Y-121627012D01*
X133107057Y-121633557D01*
X133114873Y-121613836D01*
X133131558Y-121542631D01*
X133152050Y-121433524D01*
X133173561Y-121300469D01*
X133195586Y-121154696D01*
X133262872Y-120719185D01*
X133328085Y-120311630D01*
X133390536Y-119935755D01*
X133449532Y-119595284D01*
X133504384Y-119293941D01*
X133554399Y-119035448D01*
X133598889Y-118823531D01*
X133637161Y-118661912D01*
X133668525Y-118554317D01*
X133692288Y-118504468D01*
X133735865Y-118476249D01*
X133847522Y-118458333D01*
X134000307Y-118476748D01*
X134005593Y-118477385D01*
X134102133Y-118497494D01*
X134091073Y-118405802D01*
X134084065Y-118361670D01*
X134066069Y-118262310D01*
X134039799Y-118123434D01*
X134007552Y-117956648D01*
X133971622Y-117773566D01*
X133934306Y-117585796D01*
X133897899Y-117404947D01*
X133864695Y-117242630D01*
X133836991Y-117110452D01*
X133817082Y-117020027D01*
X133814852Y-117010434D01*
X133772977Y-116836513D01*
X133741085Y-116718383D01*
X133717714Y-116651119D01*
X133701405Y-116629793D01*
X133700186Y-116630095D01*
X133674494Y-116660152D01*
X133629466Y-116729776D01*
X133574031Y-116825263D01*
X133539838Y-116884566D01*
X133464034Y-117001246D01*
X133394698Y-117089589D01*
X133339269Y-117140727D01*
X133305186Y-117145790D01*
X133298325Y-117133909D01*
X133289740Y-117066352D01*
X133294061Y-116958497D01*
X133309087Y-116824700D01*
X133332616Y-116679318D01*
X133362447Y-116536707D01*
X133396380Y-116411225D01*
X133432212Y-116317229D01*
X133435420Y-116310835D01*
X133509081Y-116217307D01*
X133616539Y-116166752D01*
X133766738Y-116154828D01*
X133853932Y-116164997D01*
G37*
G36*
X122909744Y-103621505D02*
G01*
X122967347Y-103640688D01*
X123021523Y-103676182D01*
X123074390Y-103733835D01*
X123129374Y-103819780D01*
X123189900Y-103940153D01*
X123259395Y-104101088D01*
X123341285Y-104308720D01*
X123438996Y-104569183D01*
X123482992Y-104689710D01*
X123559684Y-104904883D01*
X123645104Y-105149496D01*
X123736827Y-105416212D01*
X123832432Y-105697694D01*
X123929496Y-105986608D01*
X124025597Y-106275616D01*
X124118312Y-106557382D01*
X124205220Y-106824569D01*
X124283897Y-107069842D01*
X124351921Y-107285864D01*
X124406870Y-107465299D01*
X124446321Y-107600809D01*
X124467852Y-107685060D01*
X124477829Y-107725483D01*
X124505302Y-107823103D01*
X124543521Y-107950913D01*
X124587449Y-108091779D01*
X124640270Y-108267513D01*
X124702311Y-108489924D01*
X124769646Y-108743519D01*
X124838564Y-109013500D01*
X124905360Y-109285068D01*
X124966321Y-109543425D01*
X125017744Y-109773769D01*
X125055916Y-109961304D01*
X125089675Y-110158232D01*
X125125460Y-110465324D01*
X125130389Y-110719165D01*
X125104335Y-110920183D01*
X125047172Y-111068808D01*
X124958773Y-111165468D01*
X124839010Y-111210589D01*
X124687758Y-111204602D01*
X124636740Y-111193526D01*
X124586763Y-111175352D01*
X124535533Y-111143747D01*
X124472640Y-111090863D01*
X124387677Y-111008859D01*
X124270235Y-110889887D01*
X124229711Y-110848225D01*
X124095883Y-110704174D01*
X123985802Y-110571040D01*
X123882164Y-110426764D01*
X123767661Y-110249286D01*
X123747686Y-110217364D01*
X123668282Y-110092236D01*
X123602149Y-109990788D01*
X123555708Y-109922729D01*
X123535376Y-109897773D01*
X123536340Y-109915521D01*
X123549403Y-109981163D01*
X123572520Y-110082542D01*
X123602319Y-110206209D01*
X123635428Y-110338715D01*
X123668475Y-110466613D01*
X123698089Y-110576453D01*
X123720900Y-110654789D01*
X123733534Y-110688170D01*
X123739510Y-110701125D01*
X123757437Y-110766839D01*
X123782412Y-110877603D01*
X123812465Y-111022861D01*
X123845634Y-111192056D01*
X123879950Y-111374631D01*
X123913449Y-111560030D01*
X123944164Y-111737694D01*
X123970129Y-111897068D01*
X123989378Y-112027595D01*
X123999944Y-112118716D01*
X124004893Y-112186142D01*
X124007726Y-112328419D01*
X123992685Y-112436585D01*
X123955703Y-112529954D01*
X123892713Y-112627838D01*
X123868352Y-112658538D01*
X123809108Y-112699526D01*
X123723671Y-112705003D01*
X123661370Y-112697622D01*
X123576612Y-112675096D01*
X123490984Y-112634809D01*
X123400928Y-112572893D01*
X123302884Y-112485477D01*
X123193293Y-112368693D01*
X123068598Y-112218671D01*
X122925239Y-112031543D01*
X122759658Y-111803438D01*
X122568296Y-111530489D01*
X122347595Y-111208825D01*
X122344276Y-111203953D01*
X122231195Y-111038164D01*
X122124193Y-110881696D01*
X122030469Y-110745044D01*
X121957218Y-110638701D01*
X121911638Y-110573162D01*
X121845904Y-110466292D01*
X121822160Y-110382638D01*
X121846677Y-110322412D01*
X121919678Y-110277307D01*
X121946588Y-110267081D01*
X122068818Y-110249645D01*
X122177403Y-110289530D01*
X122279896Y-110389080D01*
X122282317Y-110392185D01*
X122346665Y-110481025D01*
X122434494Y-110610649D01*
X122537987Y-110769100D01*
X122649329Y-110944422D01*
X122760707Y-111124661D01*
X122764203Y-111130389D01*
X122864690Y-111286823D01*
X122988050Y-111467223D01*
X123120522Y-111652340D01*
X123248345Y-111822925D01*
X123357754Y-111959729D01*
X123525164Y-112158448D01*
X123530629Y-112065263D01*
X123530993Y-112056856D01*
X123525975Y-111954053D01*
X123507817Y-111803610D01*
X123478523Y-111616672D01*
X123440096Y-111404386D01*
X123394540Y-111177897D01*
X123343858Y-110948351D01*
X123290053Y-110726893D01*
X123265390Y-110630251D01*
X123221658Y-110457516D01*
X123182978Y-110303058D01*
X123152830Y-110180806D01*
X123134690Y-110104688D01*
X123115402Y-110024303D01*
X123097002Y-109970972D01*
X123080539Y-109965282D01*
X123060753Y-109999772D01*
X123050446Y-110044659D01*
X123039528Y-110138104D01*
X123030614Y-110258371D01*
X123024787Y-110386652D01*
X123023126Y-110504137D01*
X123026713Y-110592019D01*
X123029988Y-110629718D01*
X123029533Y-110788839D01*
X122999108Y-110897364D01*
X122936717Y-110959441D01*
X122840365Y-110979212D01*
X122797135Y-110975267D01*
X122714855Y-110935584D01*
X122655301Y-110850981D01*
X122617881Y-110718681D01*
X122601999Y-110535911D01*
X122607062Y-110299895D01*
X122632478Y-110007857D01*
X122656899Y-109786648D01*
X122686998Y-109512801D01*
X122710885Y-109289491D01*
X122728759Y-109110115D01*
X122740822Y-108968072D01*
X122747277Y-108856762D01*
X122748322Y-108769582D01*
X122744160Y-108699930D01*
X122734990Y-108641207D01*
X122721014Y-108586810D01*
X122702433Y-108530136D01*
X122679448Y-108464588D01*
X122647952Y-108372125D01*
X122620567Y-108278247D01*
X122613477Y-108217739D01*
X122625637Y-108176082D01*
X122656001Y-108138758D01*
X122720168Y-108090023D01*
X122796123Y-108059582D01*
X122805176Y-108058097D01*
X122858304Y-108036899D01*
X122874703Y-107987236D01*
X122881156Y-107937958D01*
X122904823Y-107828476D01*
X122939215Y-107705134D01*
X122978450Y-107586570D01*
X123016647Y-107491419D01*
X123047924Y-107438323D01*
X123052013Y-107434552D01*
X123123238Y-107404895D01*
X123221619Y-107397976D01*
X123319447Y-107412937D01*
X123389014Y-107448916D01*
X123399258Y-107468837D01*
X123401444Y-107538990D01*
X123382347Y-107657424D01*
X123341369Y-107828903D01*
X123291864Y-108027515D01*
X123257442Y-108192070D01*
X123240713Y-108317717D01*
X123240355Y-108414630D01*
X123255044Y-108492990D01*
X123260836Y-108509533D01*
X123292668Y-108585457D01*
X123344360Y-108699595D01*
X123410212Y-108839532D01*
X123484525Y-108992853D01*
X123492831Y-109009716D01*
X123656442Y-109331177D01*
X123822484Y-109638377D01*
X123985827Y-109922666D01*
X124141346Y-110175389D01*
X124283910Y-110387896D01*
X124408393Y-110551535D01*
X124471934Y-110629111D01*
X124536468Y-110711064D01*
X124575945Y-110765065D01*
X124577323Y-110767163D01*
X124622155Y-110813516D01*
X124654714Y-110800180D01*
X124674227Y-110728383D01*
X124679923Y-110599356D01*
X124674883Y-110517531D01*
X124655596Y-110363787D01*
X124623884Y-110167848D01*
X124581862Y-109939802D01*
X124531648Y-109689744D01*
X124475357Y-109427765D01*
X124415108Y-109163957D01*
X124353014Y-108908412D01*
X124291196Y-108671223D01*
X124231767Y-108462481D01*
X124202320Y-108363032D01*
X124173180Y-108261140D01*
X124155431Y-108194849D01*
X124147758Y-108164336D01*
X124112279Y-108035968D01*
X124060156Y-107858818D01*
X123993807Y-107640379D01*
X123915655Y-107388142D01*
X123828122Y-107109599D01*
X123733628Y-106812243D01*
X123634595Y-106503565D01*
X123533446Y-106191057D01*
X123432600Y-105882210D01*
X123334479Y-105584517D01*
X123241506Y-105305471D01*
X123156100Y-105052561D01*
X123080684Y-104833282D01*
X123017679Y-104655123D01*
X122969507Y-104525579D01*
X122942847Y-104459970D01*
X122885623Y-104334671D01*
X122831191Y-104233208D01*
X122788452Y-104172918D01*
X122750889Y-104121670D01*
X122705554Y-104030441D01*
X122665372Y-103923604D01*
X122636033Y-103818907D01*
X122623228Y-103734101D01*
X122632648Y-103686936D01*
X122685075Y-103650354D01*
X122794092Y-103617953D01*
X122909744Y-103621505D01*
G37*
%TD*%
M02*
