%TF.GenerationSoftware,KiCad,Pcbnew,9.0.0-1.fc40*%
%TF.CreationDate,2025-05-08T22:15:19+02:00*%
%TF.ProjectId,CNC pcb,434e4320-7063-4622-9e6b-696361645f70,rev?*%
%TF.SameCoordinates,Original*%
%TF.FileFunction,Profile,NP*%
%FSLAX46Y46*%
G04 Gerber Fmt 4.6, Leading zero omitted, Abs format (unit mm)*
G04 Created by KiCad (PCBNEW 9.0.0-1.fc40) date 2025-05-08 22:15:19*
%MOMM*%
%LPD*%
G01*
G04 APERTURE LIST*
%TA.AperFunction,Profile*%
%ADD10C,0.200000*%
%TD*%
G04 APERTURE END LIST*
D10*
X75600000Y-55500000D02*
G75*
G02*
X73400000Y-55500000I-1100000J0D01*
G01*
X73400000Y-55500000D02*
G75*
G02*
X75600000Y-55500000I1100000J0D01*
G01*
X71100000Y-60000000D02*
G75*
G02*
X68900000Y-60000000I-1100000J0D01*
G01*
X68900000Y-60000000D02*
G75*
G02*
X71100000Y-60000000I1100000J0D01*
G01*
X76500000Y-60000000D02*
G75*
G02*
X72500000Y-60000000I-2000000J0D01*
G01*
X72500000Y-60000000D02*
G75*
G02*
X76500000Y-60000000I2000000J0D01*
G01*
X80100000Y-60000000D02*
G75*
G02*
X77900000Y-60000000I-1100000J0D01*
G01*
X77900000Y-60000000D02*
G75*
G02*
X80100000Y-60000000I1100000J0D01*
G01*
X75600000Y-64500000D02*
G75*
G02*
X73400000Y-64500000I-1100000J0D01*
G01*
X73400000Y-64500000D02*
G75*
G02*
X75600000Y-64500000I1100000J0D01*
G01*
X88684715Y-73084715D02*
G75*
G02*
X86484715Y-73084715I-1100000J0D01*
G01*
X86484715Y-73084715D02*
G75*
G02*
X88684715Y-73084715I1100000J0D01*
G01*
X100705530Y-85105530D02*
G75*
G02*
X98505530Y-85105530I-1100000J0D01*
G01*
X98505530Y-85105530D02*
G75*
G02*
X100705530Y-85105530I1100000J0D01*
G01*
X111100000Y-77115224D02*
G75*
G02*
X108900000Y-77115224I-1100000J0D01*
G01*
X108900000Y-77115224D02*
G75*
G02*
X111100000Y-77115224I1100000J0D01*
G01*
X99156854Y-79000000D02*
X106000000Y-85843146D01*
X120843146Y-79000000D02*
G75*
G02*
X99156854Y-79000000I-10843146J64089212D01*
G01*
X106000000Y-85843146D02*
X114000000Y-85843146D01*
X114000000Y-85843146D02*
X120843148Y-78999998D01*
X92715224Y-95500000D02*
G75*
G02*
X90515224Y-95500000I-1100000J0D01*
G01*
X90515224Y-95500000D02*
G75*
G02*
X92715224Y-95500000I1100000J0D01*
G01*
X92000000Y-99500000D02*
G75*
G02*
X92000000Y-91500000I0J4000000D01*
G01*
X100343146Y-99500000D02*
X92000000Y-99500000D01*
X100343146Y-91500000D02*
X92000000Y-91500000D01*
X83343146Y-116500000D02*
X100343146Y-99500000D01*
X83343146Y-74500000D02*
X100343146Y-91500000D01*
X83343146Y-74500000D02*
X83343146Y-116500000D01*
X142100000Y-60000000D02*
G75*
G02*
X139900000Y-60000000I-1100000J0D01*
G01*
X139900000Y-60000000D02*
G75*
G02*
X142100000Y-60000000I1100000J0D01*
G01*
X147500000Y-60000000D02*
G75*
G02*
X143500000Y-60000000I-2000000J0D01*
G01*
X143500000Y-60000000D02*
G75*
G02*
X147500000Y-60000000I2000000J0D01*
G01*
X146600000Y-64500000D02*
G75*
G02*
X144400000Y-64500000I-1100000J0D01*
G01*
X144400000Y-64500000D02*
G75*
G02*
X146600000Y-64500000I1100000J0D01*
G01*
X133515285Y-73084715D02*
G75*
G02*
X131315285Y-73084715I-1100000J0D01*
G01*
X131315285Y-73084715D02*
G75*
G02*
X133515285Y-73084715I1100000J0D01*
G01*
X121494470Y-85105530D02*
G75*
G02*
X119294470Y-85105530I-1100000J0D01*
G01*
X119294470Y-85105530D02*
G75*
G02*
X121494470Y-85105530I1100000J0D01*
G01*
X119656854Y-91500000D02*
X128000000Y-91500000D01*
X128000000Y-91500000D02*
G75*
G02*
X128000000Y-99500000I0J-4000000D01*
G01*
X136656854Y-74500000D02*
X119656854Y-91500000D01*
X119656854Y-99500000D02*
X128000000Y-99500000D01*
X136656854Y-74500000D02*
X136656854Y-116500000D01*
X136656854Y-116500000D02*
X119656854Y-99500000D01*
X129484776Y-95500000D02*
G75*
G02*
X127284776Y-95500000I-1100000J0D01*
G01*
X127284776Y-95500000D02*
G75*
G02*
X129484776Y-95500000I1100000J0D01*
G01*
X100705530Y-105894470D02*
G75*
G02*
X98505530Y-105894470I-1100000J0D01*
G01*
X98505530Y-105894470D02*
G75*
G02*
X100705530Y-105894470I1100000J0D01*
G01*
X120843147Y-112000001D02*
X114000000Y-105156854D01*
X99156854Y-112000000D02*
G75*
G02*
X120843147Y-112000001I10843144J-64089183D01*
G01*
X106000000Y-105156854D02*
X114000000Y-105156854D01*
X106000000Y-105156854D02*
X99156854Y-112000000D01*
X111100000Y-113884776D02*
G75*
G02*
X108900000Y-113884776I-1100000J0D01*
G01*
X108900000Y-113884776D02*
G75*
G02*
X111100000Y-113884776I1100000J0D01*
G01*
X88684715Y-117915285D02*
G75*
G02*
X86484715Y-117915285I-1100000J0D01*
G01*
X86484715Y-117915285D02*
G75*
G02*
X88684715Y-117915285I1100000J0D01*
G01*
X71100000Y-131000000D02*
G75*
G02*
X68900000Y-131000000I-1100000J0D01*
G01*
X68900000Y-131000000D02*
G75*
G02*
X71100000Y-131000000I1100000J0D01*
G01*
X75600000Y-126500000D02*
G75*
G02*
X73400000Y-126500000I-1100000J0D01*
G01*
X73400000Y-126500000D02*
G75*
G02*
X75600000Y-126500000I1100000J0D01*
G01*
X76500000Y-131000000D02*
G75*
G02*
X72500000Y-131000000I-2000000J0D01*
G01*
X72500000Y-131000000D02*
G75*
G02*
X76500000Y-131000000I2000000J0D01*
G01*
X80100000Y-131000000D02*
G75*
G02*
X77900000Y-131000000I-1100000J0D01*
G01*
X77900000Y-131000000D02*
G75*
G02*
X80100000Y-131000000I1100000J0D01*
G01*
X75600000Y-135500000D02*
G75*
G02*
X73400000Y-135500000I-1100000J0D01*
G01*
X73400000Y-135500000D02*
G75*
G02*
X75600000Y-135500000I1100000J0D01*
G01*
X121494470Y-105894470D02*
G75*
G02*
X119294470Y-105894470I-1100000J0D01*
G01*
X119294470Y-105894470D02*
G75*
G02*
X121494470Y-105894470I1100000J0D01*
G01*
X133515285Y-117915285D02*
G75*
G02*
X131315285Y-117915285I-1100000J0D01*
G01*
X131315285Y-117915285D02*
G75*
G02*
X133515285Y-117915285I1100000J0D01*
G01*
X146600000Y-126500000D02*
G75*
G02*
X144400000Y-126500000I-1100000J0D01*
G01*
X144400000Y-126500000D02*
G75*
G02*
X146600000Y-126500000I1100000J0D01*
G01*
X142100000Y-131000000D02*
G75*
G02*
X139900000Y-131000000I-1100000J0D01*
G01*
X139900000Y-131000000D02*
G75*
G02*
X142100000Y-131000000I1100000J0D01*
G01*
X147500000Y-131000000D02*
G75*
G02*
X143500000Y-131000000I-2000000J0D01*
G01*
X143500000Y-131000000D02*
G75*
G02*
X147500000Y-131000000I2000000J0D01*
G01*
X151100000Y-131000000D02*
G75*
G02*
X148900000Y-131000000I-1100000J0D01*
G01*
X148900000Y-131000000D02*
G75*
G02*
X151100000Y-131000000I1100000J0D01*
G01*
X146600000Y-135500000D02*
G75*
G02*
X144400000Y-135500000I-1100000J0D01*
G01*
X144400000Y-135500000D02*
G75*
G02*
X146600000Y-135500000I1100000J0D01*
G01*
X143842338Y-123685483D02*
G75*
G02*
X138185483Y-129342339I1657662J-7314517D01*
G01*
X138185483Y-129342339D02*
X127343148Y-118500002D01*
X143842338Y-123685483D02*
X139656854Y-119500000D01*
X92656854Y-118500000D02*
G75*
G02*
X127343148Y-118500002I17343143J-62643526D01*
G01*
X139656854Y-71500000D02*
X139656854Y-119500000D01*
X81814517Y-129342338D02*
X92656854Y-118500000D01*
X143842338Y-67314517D02*
X139656854Y-71500000D01*
X81814517Y-129342339D02*
G75*
G02*
X76157662Y-123685483I-7314517J-1657661D01*
G01*
X76157662Y-123685483D02*
X80343146Y-119500000D01*
X80343146Y-71500000D02*
X80343146Y-119500000D01*
X76157662Y-67314517D02*
X80343146Y-71500000D01*
X76157662Y-67314517D02*
G75*
G02*
X81814517Y-61657662I-1657662J7314517D01*
G01*
X127343148Y-72499998D02*
G75*
G02*
X92656856Y-72500002I-17343153J62643544D01*
G01*
X81814517Y-61657661D02*
X92656856Y-72500002D01*
X146600000Y-55500000D02*
G75*
G02*
X144400000Y-55500000I-1100000J0D01*
G01*
X144400000Y-55500000D02*
G75*
G02*
X146600000Y-55500000I1100000J0D01*
G01*
X151100000Y-60000000D02*
G75*
G02*
X148900000Y-60000000I-1100000J0D01*
G01*
X148900000Y-60000000D02*
G75*
G02*
X151100000Y-60000000I1100000J0D01*
G01*
X138185483Y-61657661D02*
G75*
G02*
X143842338Y-67314517I7314517J1657661D01*
G01*
X138185483Y-61657661D02*
X127343146Y-72500000D01*
M02*
